<?xml version="1.0" encoding="utf-8"?>
<!-- Generator: Adobe Illustrator 16.0.0, SVG Export Plug-In . SVG Version: 6.00 Build 0)  -->
<!DOCTYPE svg PUBLIC "-//W3C//DTD SVG 1.1//EN" "http://www.w3.org/Graphics/SVG/1.1/DTD/svg11.dtd">
<svg version="1.1" id="Layer_1" xmlns="http://www.w3.org/2000/svg" xmlns:xlink="http://www.w3.org/1999/xlink" x="0px" y="0px"
	 width="700px" height="700px" viewBox="56.831 774.83 700 700" enable-background="new 56.831 774.83 700 700"
	 xml:space="preserve">
<path d="M718.673,1035.564l-48.643-36.008c-1.455-1.912-3.436-3.395-5.729-4.242L414.421,810.326c-4.51-3.336-10.67-3.34-15.181,0
	L149.357,995.314c-2.292,0.849-4.271,2.33-5.726,4.24l-48.643,36.01c-5.662,4.191-6.854,12.181-2.663,17.845
	c4.192,5.659,12.18,6.854,17.842,2.659l30.848-22.836v395.851c0,7.045,5.711,12.756,12.756,12.756h506.117
	c7.045,0,12.756-5.711,12.756-12.756v-395.851l30.85,22.836c2.281,1.691,4.941,2.507,7.58,2.507c3.902,0,7.76-1.787,10.262-5.166
	C725.527,1047.744,724.335,1039.756,718.673,1035.564z M647.132,1416.326H166.528v-401.98l240.302-177.895l240.304,177.895v401.98
	H647.132z M304.438,1088.756l-30.61,84.332c-0.54,1.488-0.771,3.008-0.753,4.5c-23.328,10.086-39.698,33.316-39.698,60.305v9.923
	c0,35.725,28.681,64.856,64.224,65.633v20.033c0,7.045,5.711,12.756,12.756,12.756s12.756-5.711,12.756-12.756v-19.998h168.469
	v19.998c0,7.045,5.711,12.756,12.756,12.756s12.756-5.711,12.756-12.756v-20.033c35.551-0.769,64.238-29.902,64.238-65.633v-9.923
	c0-26.987-16.369-50.219-39.697-60.305c0.018-1.492-0.215-3.012-0.754-4.5l-30.611-84.332c-1.83-5.043-6.623-8.402-11.988-8.402
	h-90.934h-90.918C311.062,1080.353,306.268,1083.713,304.438,1088.756z M555.818,1237.892v9.922
	c0,22.144-18.016,40.156-40.158,40.156H299.046c-22.143,0-40.158-18.014-40.158-40.156v-9.922c0-22.143,18.015-40.156,40.158-40.156
	H515.66C537.802,1197.737,555.818,1215.75,555.818,1237.892z M407.345,1105.865h81.992l24.088,66.358H301.28l24.087-66.358H407.345z
	 M333.429,1242.853c0,7.045-5.711,12.756-12.756,12.756h-16.509c-7.045,0-12.756-5.711-12.756-12.756s5.711-12.756,12.756-12.756
	h16.509C327.718,1230.098,333.429,1235.808,333.429,1242.853z M510.527,1230.098c7.047,0,12.758,5.711,12.758,12.756
	s-5.711,12.757-12.758,12.757h-16.51c-7.045,0-12.756-5.712-12.756-12.757s5.711-12.756,12.756-12.756H510.527z"/>
</svg>
