<?xml version="1.0" encoding="utf-8"?>
<!-- Generator: Adobe Illustrator 16.0.0, SVG Export Plug-In . SVG Version: 6.00 Build 0)  -->
<!DOCTYPE svg PUBLIC "-//W3C//DTD SVG 1.1//EN" "http://www.w3.org/Graphics/SVG/1.1/DTD/svg11.dtd">
<svg version="1.1" id="Layer_1" xmlns="http://www.w3.org/2000/svg" xmlns:xlink="http://www.w3.org/1999/xlink" x="0px" y="0px"
	 width="700px" height="700px" viewBox="56.831 774.831 700 700" enable-background="new 56.831 774.831 700 700"
	 xml:space="preserve">
<path d="M648.044,1224.811c37.913,89.2-52.033,179.144-141.234,141.234c-36.422,89.944-163.533,89.944-199.958,0
	c-89.2,37.91-179.144-52.033-141.235-141.234c-89.944-36.424-89.944-163.535,0-199.96c-37.91-89.2,52.034-179.144,141.235-141.235
	c36.424-89.943,163.535-89.943,199.958,0c89.201-37.91,179.145,52.034,141.234,141.235
	C737.989,1062.019,737.989,1188.387,648.044,1224.811z M624.258,1035.259c34.192-80.279-46.83-161.304-127.111-127.11
	c-32.706-81.024-147.182-81.024-179.888,0c-80.281-34.193-161.306,46.831-127.111,127.11c-35.681,14.123-60.211,49.06-60.211,89.946
	c0,40.882,25.273,75.82,60.211,89.942c-34.193,80.281,46.83,161.304,127.111,127.111c32.706,81.024,147.182,81.024,179.888,0
	c80.281,34.192,161.304-46.83,127.111-127.111C705.283,1181.697,705.283,1067.967,624.258,1035.259z M499.376,1294.684
	c-42.371,0-77.307-34.192-77.307-77.307c0-42.371,34.192-77.307,77.307-77.307s77.307,34.192,77.307,77.307
	S542.491,1294.684,499.376,1294.684z M499.376,1171.29c-25.272,0-46.087,20.814-46.087,46.087c0,25.275,20.814,46.087,46.087,46.087
	s46.087-20.812,46.087-46.087C546.207,1192.105,525.395,1171.29,499.376,1171.29z M283.809,1226.298l224.489-224.488l22.301,22.3
	L306.11,1248.597L283.809,1226.298z M315.029,1109.594c-42.371,0-77.307-34.194-77.307-77.309c0-42.37,34.193-77.307,77.307-77.307
	c43.115,0,77.308,34.193,77.308,77.307C391.593,1075.4,357.399,1109.594,315.029,1109.594z M315.029,986.199
	c-25.274,0-46.087,20.812-46.087,46.087c0,25.273,20.813,46.087,46.087,46.087c25.273,0,46.088-20.813,46.088-46.087
	C361.117,1007.013,340.303,986.199,315.029,986.199z"/>
</svg>
