<?xml version="1.0" encoding="utf-8"?>
<!-- Generator: Adobe Illustrator 16.0.0, SVG Export Plug-In . SVG Version: 6.00 Build 0)  -->
<!DOCTYPE svg PUBLIC "-//W3C//DTD SVG 1.1//EN" "http://www.w3.org/Graphics/SVG/1.1/DTD/svg11.dtd">
<svg version="1.1" id="Layer_1" xmlns="http://www.w3.org/2000/svg" xmlns:xlink="http://www.w3.org/1999/xlink" x="0px" y="0px"
	 width="50px" height="50px" viewBox="0 0 50 50" enable-background="new 0 0 50 50" xml:space="preserve">
<g>
	<path fill="#4398D3" d="M50,44.331C50,47.449,47.449,50,44.331,50H5.669C2.551,50,0,47.449,0,44.331V5.669C0,2.551,2.551,0,5.669,0
		h38.662C47.449,0,50,2.551,50,5.669V44.331z"/>
</g>
<path fill="#FFFFFF" d="M40.191,11.346H39.08V8.399c0-0.822-0.627-1.448-1.449-1.448h-28.6c-0.821,0-1.45,0.626-1.45,1.448v7.731
	c0,0.819,0.629,1.449,1.45,1.449h28.6c0.822,0,1.449-0.63,1.449-1.449v-2.998h1.111c0.92,0,1.689,0.775,1.689,1.692v4.349
	c0,0.916-0.77,1.692-1.689,1.692H23.088v4.345h-0.915c-0.582,0-1.017,0.438-1.017,1.016l0.29,6.859c0.05,1.404,0.05,2.805,0,4.204
	l-0.29,7.056c0,0.579,0.435,1.014,1.017,1.014h3.477c0.579,0,1.014-0.435,1.014-1.014l-0.29-7.007c-0.048-1.402-0.048-2.803,0-4.203
	l0.29-6.862c0-0.578-0.435-1.012-1.014-1.012h-0.774v-2.563h15.269c1.932,0,3.525-1.593,3.525-3.525v-4.349
	C43.72,12.891,42.123,11.346,40.191,11.346z"/>
</svg>
