<?xml version="1.0" encoding="utf-8"?>
<!-- Generator: Adobe Illustrator 16.0.0, SVG Export Plug-In . SVG Version: 6.00 Build 0)  -->
<!DOCTYPE svg PUBLIC "-//W3C//DTD SVG 1.1//EN" "http://www.w3.org/Graphics/SVG/1.1/DTD/svg11.dtd">
<svg version="1.1" id="Layer_1" xmlns="http://www.w3.org/2000/svg" xmlns:xlink="http://www.w3.org/1999/xlink" x="0px" y="0px"
	 width="45px" height="45px" viewBox="0 0 45 45" enable-background="new 0 0 45 45" xml:space="preserve">
<path d="M35.5,14.437c-0.957,0.424-1.985,0.711-3.064,0.84c1.103-0.66,1.948-1.706,2.347-2.952
	c-1.031,0.611-2.172,1.055-3.389,1.295c-0.972-1.038-2.359-1.685-3.893-1.685c-2.946,0-5.334,2.389-5.334,5.334
	c0,0.418,0.048,0.826,0.137,1.216c-4.432-0.222-8.363-2.347-10.995-5.573c-0.458,0.787-0.722,1.704-0.722,2.682
	c0,1.851,0.942,3.483,2.373,4.439c-0.874-0.027-1.696-0.268-2.415-0.667c-0.001,0.021-0.001,0.044-0.001,0.067
	c0,2.584,1.839,4.739,4.279,5.23c-0.448,0.121-0.92,0.187-1.407,0.187c-0.343,0-0.677-0.034-1.003-0.096
	c0.679,2.119,2.649,3.661,4.984,3.705c-1.826,1.431-4.125,2.284-6.625,2.284c-0.431,0-0.855-0.025-1.273-0.075
	c2.36,1.512,5.164,2.396,8.177,2.396c9.811,0,15.176-8.128,15.176-15.178c0-0.23-0.004-0.46-0.015-0.689
	C33.881,16.446,34.784,15.506,35.5,14.437z"/>
<path d="M22.5,45C10.093,45,0,34.907,0,22.5S10.093,0,22.5,0S45,10.093,45,22.5S34.907,45,22.5,45z M22.5,2
	C11.196,2,2,11.196,2,22.5S11.196,43,22.5,43S43,33.804,43,22.5S33.804,2,22.5,2z"/>
</svg>
