<svg xmlns="http://www.w3.org/2000/svg" width="100" height="102" viewBox="0 0 100 102">
    <defs>
        <linearGradient id="a" x1="50%" x2="50%" y1="0%" y2="100%">
            <stop offset="0%" stop-color="#079C95"/>
            <stop offset="100%" stop-color="#49C060"/>
        </linearGradient>
    </defs>
    <path fill="url(#a)" fill-rule="nonzero" d="M116.954 58.904l.878-4.812a1.829 1.829 0 0 0-3.598-.655v-.001l-.876 4.807a51.924 51.924 0 0 0-7.65-.581c-11.446 0-22.252 3.817-30.875 10.417-8.624 6.597-15.075 15.995-17.782 27.127a1.83 1.83 0 0 0 3.148 1.643c2.652-3 6.573-4.841 10.805-4.84.877 0 1.766.077 2.662.242l.33-1.799-.329 1.8c5.811 1.057 10.156 5.362 11.47 10.586a1.831 1.831 0 0 0 3.278.595c3.574-5.162 9.633-8.42 16.243-8.417.654 0 1.314.037 1.977.102l-1.721 9.439-6.9 37.854c-8.366.047-16.116.662-22.538 1.702-3.348.541-6.336 1.195-8.887 1.952-2.55.76-4.657 1.605-6.286 2.615a1.828 1.828 0 1 0 1.929 3.106c1.19-.742 3.046-1.521 5.398-2.215 7.073-2.104 18.55-3.517 31.432-3.511 8.593 0 16.549.62 23.004 1.664 3.226.522 6.076 1.15 8.43 1.848 2.351.694 4.207 1.473 5.397 2.217a1.828 1.828 0 0 0 1.93-3.107c-1.63-1.01-3.735-1.857-6.286-2.616-7.114-2.104-17.74-3.461-29.805-3.64l6.782-37.21 1.716-9.413c7.033 1.984 12.227 7.518 13.885 14.14a1.828 1.828 0 0 0 3.278.599c2.594-3.74 6.993-6.102 11.794-6.1.88 0 1.771.077 2.669.243h.003c5.228.95 9.262 4.534 10.98 9.053a1.83 1.83 0 0 0 3.526-.426c.241-1.974.36-3.94.36-5.889-.006-22.903-16.335-43.346-39.77-48.52zm-42.63 29.749a18.134 18.134 0 0 0-12.003 1.928c3.038-7.896 8.203-14.599 14.732-19.598 7.825-5.987 17.598-9.502 27.972-9.648-.192.139-.385.273-.575.42-4.106 3.203-7.88 8.352-11.14 14.873-2.837 5.695-5.266 12.447-7.04 19.88-2.627-3.973-6.842-6.923-11.945-7.855zm34.662 3.1h.003a23.895 23.895 0 0 0-4.331-.395 23.576 23.576 0 0 0-14.601 5.056c2.369-9.533 5.847-17.814 9.75-23.844 2.224-3.441 4.587-6.141 6.888-7.929 2.309-1.794 4.503-2.647 6.474-2.642.41 0 .816.036 1.221.11 1.572.289 3.021 1.116 4.4 2.56 2.062 2.16 3.85 5.73 5.062 10.335 1.22 4.603 1.886 10.218 1.884 16.438a97.475 97.475 0 0 1-.688 11.35c-3.36-5.58-9.07-9.765-16.062-11.039zm33.526 9.332h.003a18.315 18.315 0 0 0-3.33-.303c-3.923 0-7.62 1.274-10.638 3.463.563-4.434.847-8.734.849-12.803-.005-8.642-1.215-16.252-3.542-22.05a26.462 26.462 0 0 0-2.452-4.71c17.722 6.962 29.522 23.835 29.654 42.417a18.194 18.194 0 0 0-10.544-6.014z" transform="translate(-57 -51)"/>
</svg>
