<svg xmlns="http://www.w3.org/2000/svg" width="125" height="125" viewBox="0 0 125 125">
    <defs>
        <linearGradient id="a" x1="50%" x2="50%" y1="0%" y2="100%">
            <stop offset="0%" stop-color="#079C95"/>
            <stop offset="100%" stop-color="#49C060"/>
        </linearGradient>
    </defs>
    <path fill="url(#a)" fill-rule="nonzero" d="M151.75 41.035a1.453 1.453 0 0 0-.682.363l-23.25 21.796a1.453 1.453 0 0 0-.453 1.09v18.482l-7.311 8.4-20.797-17.8a1.453 1.453 0 0 0-1.09-.363c-.304.032-.59.159-.817.363l-50.858 43.592a1.453 1.453 0 0 0 .953 2.543H59.07v45.046c0 .802.65 1.453 1.453 1.453h75.56a1.453 1.453 0 1 0 0-2.906h-23.249v-36.327c0-.803-.65-1.453-1.453-1.453H85.225a1.453 1.453 0 0 0-.272 0 1.453 1.453 0 0 0-1.18 1.453v36.327H61.975v-45.046c0-.802-.65-1.453-1.453-1.453h-9.172l46.952-40.232 46.953 40.232h-9.173c-.802 0-1.453.65-1.453 1.453v37.78a1.453 1.453 0 1 0 2.906 0v-36.327h11.625a1.453 1.453 0 0 0 .954-2.543l-27.836-23.885 7.31-8.446h16.666a1.453 1.453 0 0 0 1.044-.454l23.25-23.249c.56-.566.56-1.477 0-2.043l-17.437-17.437a1.453 1.453 0 0 0-1.363-.409zm.272 3.451l15.393 15.44L145.62 81.72h-15.348V64.92l21.75-20.434zM86.679 128.22h23.249v34.874h-23.25V128.22zm7.265 14.53a2.906 2.906 0 1 0 0 5.813 2.906 2.906 0 0 0 0-5.812z" transform="translate(-46 -41)"/>
</svg>
