<?xml version="1.0" encoding="utf-8"?>
<!-- Generator: Adobe Illustrator 16.0.0, SVG Export Plug-In . SVG Version: 6.00 Build 0)  -->
<!DOCTYPE svg PUBLIC "-//W3C//DTD SVG 1.1//EN" "http://www.w3.org/Graphics/SVG/1.1/DTD/svg11.dtd">
<svg version="1.1" id="Layer_1" xmlns="http://www.w3.org/2000/svg" xmlns:xlink="http://www.w3.org/1999/xlink" x="0px" y="0px"
	 width="17px" height="19px" viewBox="0 0 17 19" enable-background="new 0 0 17 19" xml:space="preserve">
<path fill="#BDBDBD" d="M15.771,15.661l-3.697-3.712c0.951-1.091,1.471-2.465,1.471-3.895C13.546,4.717,10.732,2,7.272,2
	C3.814,2,1,4.717,1,8.055c0,3.341,2.814,6.058,6.272,6.058c1.298,0,2.537-0.378,3.594-1.097l3.726,3.741
	C14.749,16.914,14.958,17,15.183,17c0.212,0,0.413-0.078,0.566-0.222C16.075,16.477,16.084,15.977,15.771,15.661L15.771,15.661z
	 M7.272,3.58c2.557,0,4.637,2.008,4.637,4.475c0,2.469-2.081,4.478-4.637,4.478c-2.556,0-4.636-2.009-4.636-4.478
	C2.637,5.588,4.717,3.58,7.272,3.58L7.272,3.58z M7.272,3.58"/>
</svg>
