<svg xmlns="http://www.w3.org/2000/svg" width="113" height="113" viewBox="0 0 113 113">
    <defs>
        <linearGradient id="a" x1="50%" x2="50%" y1="0%" y2="100%">
            <stop offset="0%" stop-color="#079C95"/>
            <stop offset="100%" stop-color="#49C060"/>
        </linearGradient>
    </defs>
    <g fill="url(#a)" fill-rule="nonzero" transform="translate(-334 -1398)">
        <path d="M356.498 1511c-1.42 0-2.368-.941-2.368-2.354v-81.439h-17.762c-1.42 0-2.368-.941-2.368-2.353 0-1.413.947-2.354 2.368-2.354h17.762v-22.125c0-.706.474-1.412.947-1.883.71-.47 1.421-.706 2.132-.235l66.31 24.478c1.185.471 1.659 1.413 1.422 2.59-.237 1.176-1.184 1.882-2.368 1.882H358.63v81.44c.237 1.412-.71 2.353-2.132 2.353zm2.369-88.5h50.68l-50.68-18.83v18.83z"/>
        <path d="M422 1451c-1.2 0-2-.957-2-2.393v-23.214c0-1.436.8-2.393 2-2.393s2 .957 2 2.393v23.214c0 1.436-.8 2.393-2 2.393z"/>
        <path d="M444.667 1452h-44.334c-1.4 0-2.333-.8-2.333-2s.933-2 2.333-2h44.334c1.4 0 2.333.8 2.333 2s-.933 2-2.333 2zM336 1436c-1.2 0-2-.926-2-2.316v-17.368c0-1.39.8-2.316 2-2.316s2 .926 2 2.316v17.368c0 1.39-.8 2.316-2 2.316z"/>
    </g>
</svg>
