<?xml version="1.0" encoding="utf-8"?>
<!-- Generator: Adobe Illustrator 16.0.0, SVG Export Plug-In . SVG Version: 6.00 Build 0)  -->
<!DOCTYPE svg PUBLIC "-//W3C//DTD SVG 1.1//EN" "http://www.w3.org/Graphics/SVG/1.1/DTD/svg11.dtd">
<svg version="1.1" id="Layer_1" xmlns="http://www.w3.org/2000/svg" xmlns:xlink="http://www.w3.org/1999/xlink" x="0px" y="0px"
	 width="50px" height="50px" viewBox="0 0 50 50" enable-background="new 0 0 50 50" xml:space="preserve">
<g>
	<g>
		<path d="M39.537,30.973c-1.025-1.064-2.262-1.635-3.572-1.635c-1.3,0-2.547,0.559-3.614,1.625l-3.34,3.324
			c-0.275-0.148-0.55-0.285-0.814-0.422c-0.38-0.19-0.74-0.37-1.046-0.561c-3.128-1.982-5.971-4.568-8.698-7.914
			c-1.321-1.667-2.208-3.07-2.853-4.495c0.866-0.792,1.67-1.614,2.452-2.407c0.296-0.295,0.592-0.601,0.888-0.896
			c2.219-2.216,2.219-5.086,0-7.303l-2.886-2.881c-0.327-0.327-0.666-0.664-0.982-1.002c-0.634-0.654-1.3-1.33-1.987-1.963
			C12.06,3.43,10.833,2.893,9.544,2.893c-1.29,0-2.536,0.537-3.593,1.551L5.93,4.465L2.337,8.084
			C0.984,9.435,0.213,11.08,0.043,12.99c-0.253,3.082,0.655,5.953,1.353,7.831c1.711,4.611,4.27,8.886,8.084,13.466
			c4.629,5.52,10.198,9.877,16.561,12.948c2.43,1.149,5.675,2.511,9.3,2.743C35.563,49.989,35.796,50,36.007,50
			c2.441,0,4.492-0.875,6.098-2.617c0.011-0.021,0.032-0.031,0.042-0.053c0.55-0.664,1.184-1.267,1.85-1.91
			c0.454-0.434,0.919-0.886,1.374-1.361c1.046-1.087,1.596-2.354,1.596-3.65c0-1.309-0.56-2.565-1.627-3.621L39.537,30.973z
			 M43.321,42.085C43.31,42.085,43.31,42.096,43.321,42.085c-0.413,0.444-0.835,0.845-1.29,1.288c-0.687,0.654-1.385,1.34-2.04,2.11
			c-1.068,1.14-2.325,1.678-3.974,1.678c-0.158,0-0.328,0-0.486-0.011c-3.139-0.199-6.056-1.424-8.243-2.469
			c-5.982-2.892-11.234-6.997-15.599-12.199c-3.603-4.338-6.013-8.348-7.608-12.653c-0.983-2.627-1.342-4.675-1.184-6.605
			c0.106-1.235,0.581-2.259,1.458-3.135L7.959,6.49c0.518-0.485,1.067-0.749,1.606-0.749c0.666,0,1.204,0.401,1.542,0.739
			l0.032,0.031c0.645,0.602,1.258,1.225,1.902,1.889c0.328,0.338,0.666,0.676,1.004,1.023l2.885,2.881
			c1.12,1.119,1.12,2.153,0,3.271c-0.307,0.307-0.603,0.613-0.909,0.908c-0.888,0.906-1.733,1.752-2.653,2.574
			c-0.021,0.021-0.042,0.032-0.053,0.053c-0.909,0.908-0.74,1.795-0.55,2.396l0.032,0.096c0.75,1.814,1.807,3.524,3.413,5.562
			l0.011,0.01c2.917,3.588,5.992,6.385,9.384,8.527c0.434,0.274,0.877,0.496,1.3,0.707c0.381,0.189,0.74,0.369,1.046,0.559
			c0.042,0.021,0.085,0.053,0.127,0.074c0.359,0.18,0.697,0.264,1.046,0.264c0.877,0,1.427-0.549,1.606-0.729l3.615-3.608
			c0.359-0.359,0.93-0.792,1.596-0.792c0.655,0,1.194,0.412,1.522,0.771l5.844,5.835C44.398,39.859,44.398,40.967,43.321,42.085
			L43.321,42.085z M43.321,42.085"/>
		<path d="M27.024,11.894c2.769,0.464,5.284,1.772,7.292,3.778c2.008,2.004,3.308,4.516,3.783,7.281
			c0.116,0.697,0.719,1.182,1.406,1.182c0.084,0,0.159-0.011,0.243-0.021c0.782-0.126,1.3-0.865,1.173-1.646
			c-0.571-3.345-2.156-6.395-4.576-8.812c-2.42-2.416-5.474-3.999-8.825-4.569c-0.782-0.126-1.511,0.391-1.648,1.162
			C25.735,11.018,26.242,11.767,27.024,11.894L27.024,11.894z M27.024,11.894"/>
		<path d="M49.978,22.056c-0.94-5.509-3.54-10.521-7.535-14.51s-9.015-6.585-14.531-7.524c-0.771-0.137-1.5,0.391-1.638,1.16
			c-0.126,0.781,0.391,1.51,1.173,1.647c4.925,0.833,9.417,3.165,12.988,6.722c3.572,3.566,5.897,8.053,6.732,12.97
			c0.116,0.696,0.718,1.182,1.405,1.182c0.084,0,0.159-0.011,0.243-0.021C49.587,23.564,50.116,22.826,49.978,22.056L49.978,22.056z
			 M49.978,22.056"/>
	</g>
</g>
</svg>
