<svg xmlns="http://www.w3.org/2000/svg" width="110" height="127" viewBox="0 0 110 127">
    <defs>
        <linearGradient id="a" x1="50%" x2="50%" y1="0%" y2="100%">
            <stop offset="0%" stop-color="#079C95"/>
            <stop offset="100%" stop-color="#49C060"/>
        </linearGradient>
    </defs>
    <path fill="url(#a)" fill-rule="nonzero" d="M83.545 139.332h48.954c.954 0 1.59-.636 1.59-1.59V94.829l4.927 3.656c.318.159.635.318.953.318.477 0 .954-.16 1.272-.636.477-.636.318-1.748-.318-2.225l-32.106-22.093c-.477-.318-1.272-.318-1.749 0L74.962 95.941c-.795.477-.954 1.43-.318 2.225.318.477.795.636 1.272.636.318 0 .635-.16.953-.318l5.245-3.656v42.915c-.158.953.477 1.59 1.43 1.59zm1.59-46.729l22.887-15.576 22.888 15.576v43.55H85.134v-43.55zm16.455 70.65C73.298 160.392 52 136.869 52 108.418c0-28.45 22.093-52.451 50.226-54.994l-5.722-5.722c-.636-.636-.636-1.59 0-2.225.636-.636 1.59-.636 2.225 0l8.424 8.424c.636.636.636 1.59 0 2.225l-8.424 8.424a1.717 1.717 0 0 1-1.113.477c-.318 0-.794-.16-1.112-.477-.636-.636-.636-1.59 0-2.225l5.563-5.563c-26.385 2.543-46.888 24.954-46.888 51.656 0 26.861 20.027 48.954 46.729 51.656.953.159 1.59.954 1.43 1.748-.159.795-.794 1.43-1.59 1.43h-.158zm60.08-55.47c0 28.609-22.093 52.45-50.226 54.993l5.722 5.722c.636.636.636 1.59 0 2.225a1.717 1.717 0 0 1-1.112.477c-.318 0-.795-.159-1.113-.477l-8.424-8.424c-.636-.636-.636-1.59 0-2.225l8.424-8.424c.636-.636 1.59-.636 2.225 0 .636.636.636 1.59 0 2.225l-5.563 5.563c26.385-2.543 46.888-24.954 46.888-51.656 0-26.702-20.027-48.954-46.57-51.656-.953-.159-1.59-.954-1.43-1.748.159-.954.794-1.43 1.748-1.43 28.133 2.86 49.431 26.383 49.431 54.834z" transform="translate(-52 -45)"/>
</svg>
