<?xml version="1.0" encoding="utf-8"?>
<!-- Generator: Adobe Illustrator 16.0.0, SVG Export Plug-In . SVG Version: 6.00 Build 0)  -->
<!DOCTYPE svg PUBLIC "-//W3C//DTD SVG 1.1//EN" "http://www.w3.org/Graphics/SVG/1.1/DTD/svg11.dtd">
<svg version="1.1" id="Layer_1" xmlns="http://www.w3.org/2000/svg" xmlns:xlink="http://www.w3.org/1999/xlink" x="0px" y="0px"
	 width="72px" height="72px" viewBox="0 0 72 72" enable-background="new 0 0 72 72" xml:space="preserve">
<g>
	<path d="M72,12c0-6.305-5.691-12-12-12H12C5.691,0,0,5.695,0,12v48c0,6.305,5.691,12,12,12h24V44.801h-8.801v-12H36v-4.676
		c0-8.063,6.055-15.324,13.5-15.324h9.699v12H49.5c-1.063,0-2.301,1.289-2.301,3.219v4.781h12v12h-12V72H60c6.309,0,12-5.695,12-12
		V12z M72,12"/>
</g>
</svg>
