<?xml version="1.0" encoding="utf-8"?>
<!-- Generator: Adobe Illustrator 16.0.0, SVG Export Plug-In . SVG Version: 6.00 Build 0)  -->
<!DOCTYPE svg PUBLIC "-//W3C//DTD SVG 1.1//EN" "http://www.w3.org/Graphics/SVG/1.1/DTD/svg11.dtd">
<svg version="1.1" id="Layer_1" xmlns="http://www.w3.org/2000/svg" xmlns:xlink="http://www.w3.org/1999/xlink" x="0px" y="0px"
	 width="50px" height="50px" viewBox="-0.225 841.445 50 50" enable-background="new -0.225 841.445 50 50" xml:space="preserve">
<path d="M24.774,890.654l-0.863-0.508c-0.527-0.311-12.99-7.729-20.102-18.97c-3.779-5.968-4.954-12.27-3.311-17.741
	c1.346-4.479,4.468-8.021,8.792-9.966c1.51-0.68,3.067-1.024,4.63-1.024c5.003,0,8.887,3.479,10.853,5.696
	c1.967-2.218,5.849-5.696,10.854-5.696c1.563,0,3.12,0.343,4.628,1.024c4.324,1.944,7.448,5.485,8.794,9.966
	c1.643,5.47,0.466,11.771-3.311,17.743c-7.112,11.239-19.575,18.657-20.102,18.968L24.774,890.654z M13.92,845.851
	c-1.079,0-2.165,0.245-3.234,0.726c-3.41,1.535-5.871,4.32-6.93,7.841c-1.355,4.511-0.315,9.818,2.928,14.941
	c5.638,8.91,15.184,15.455,18.09,17.318c2.906-1.866,12.461-8.424,18.091-17.318c3.242-5.123,4.283-10.431,2.926-14.941
	c-1.058-3.522-3.52-6.308-6.932-7.841c-1.068-0.48-2.154-0.726-3.231-0.726c-5.393,0-9.398,5.914-9.438,5.974l-1.417,2.124
	l-1.416-2.124C23.32,851.768,19.278,845.851,13.92,845.851z"/>
</svg>
