<?xml version="1.0" encoding="utf-8"?>
<!-- Generator: Adobe Illustrator 16.0.0, SVG Export Plug-In . SVG Version: 6.00 Build 0)  -->
<!DOCTYPE svg PUBLIC "-//W3C//DTD SVG 1.1//EN" "http://www.w3.org/Graphics/SVG/1.1/DTD/svg11.dtd">
<svg version="1.1" id="Layer_1" xmlns="http://www.w3.org/2000/svg" xmlns:xlink="http://www.w3.org/1999/xlink" x="0px" y="0px"
	 width="300px" height="200px" viewBox="0.445 595.14 300 200" enable-background="new 0.445 595.14 300 200" xml:space="preserve">
<g>
	<path d="M192.057,690.434c-2.594-2.275-6.538-2.013-8.819,0.587l-39.35,44.976l-20.275-20.275c-2.443-2.443-6.394-2.443-8.837,0
		c-2.444,2.443-2.444,6.394,0,8.838l25,25c1.175,1.175,2.762,1.831,4.418,1.831c0.069,0,0.137,0,0.212-0.006
		c1.731-0.057,3.356-0.825,4.494-2.132l43.75-50C194.92,696.653,194.657,692.71,192.057,690.434z"/>
	<path d="M234.788,607.64h-15.594v-6.25c0-3.45-2.794-6.25-6.25-6.25s-6.25,2.8-6.25,6.25v6.25h-112.5v-6.25
		c0-3.45-2.8-6.25-6.25-6.25s-6.25,2.8-6.25,6.25v6.25H66.101c-8.632,0-15.657,7.024-15.657,15.656v156.194
		c0,8.631,7.025,15.649,15.65,15.649h168.7c8.631,0,15.65-7.019,15.65-15.649V623.297C250.445,614.665,243.42,607.64,234.788,607.64
		z M66.101,620.14h15.593v6.25c0,3.45,2.8,6.25,6.25,6.25s6.25-2.8,6.25-6.25v-6.25h112.5v6.25c0,3.45,2.794,6.25,6.25,6.25
		s6.25-2.8,6.25-6.25v-6.25h15.594c1.737,0,3.156,1.419,3.156,3.156v21.844H62.945v-21.844
		C62.945,621.559,64.364,620.14,66.101,620.14z M234.795,782.64h-168.7c-1.737,0-3.149-1.412-3.149-3.149V657.64h174.999v121.851
		C237.944,781.228,236.532,782.64,234.795,782.64z"/>
</g>
</svg>
