<?xml version="1.0" encoding="utf-8"?>
<!-- Generator: Adobe Illustrator 16.0.0, SVG Export Plug-In . SVG Version: 6.00 Build 0)  -->
<!DOCTYPE svg PUBLIC "-//W3C//DTD SVG 1.1//EN" "http://www.w3.org/Graphics/SVG/1.1/DTD/svg11.dtd">
<svg version="1.1" id="Layer_1" xmlns="http://www.w3.org/2000/svg" xmlns:xlink="http://www.w3.org/1999/xlink" x="0px" y="0px"
	 width="450px" height="450px" viewBox="0.445 595.14 450 450" enable-background="new 0.445 595.14 450 450" xml:space="preserve">
<path d="M12.678,763.353V617.324c0-7.469,3.835-12.341,11.299-12.341h219.044c7.468,0,13.502,4.872,13.502,12.341v45.972
	c0,7.469-6.875,13.521-14.344,13.521c-7.468,0-14.344-6.053-14.344-13.521v-34.406H36.584v134.464
	c0,7.469-4.479,13.521-11.953,13.521C17.163,776.875,12.678,770.822,12.678,763.353z M438.211,801.212v221.746
	c0,7.473-3.835,12.34-11.298,12.34H243.021H23.977c-7.464,0-11.299-4.867-11.299-12.34V871.52c0-7.469,4.485-13.521,11.953-13.521
	c7.474,0,11.953,6.058,11.953,13.521v139.871h191.251v-58.742c0-7.396,6.743-13.394,14.125-13.511v-0.803l0.744,0.818
	c7.262,0.276,13.818,6.207,13.818,13.495v1.705l51.851,57.037h25.854L241.96,909.892v-12.06l103.233,113.559h25.845L252.376,880.856
	c-2.673,2.575-6.353,4.186-10.197,4.186c-7.468,0-14.344-6.054-14.344-13.521v-2.702v-67.606v-51.38
	c0-7.469,6.876-13.521,14.344-13.521c7.469,0,14.344,6.053,14.344,13.521v36.84h170.391
	C434.381,786.672,438.211,793.743,438.211,801.212z M414.305,925.435v-28.437l-74.217-81.64h-25.851L414.305,925.435z
	 M303.273,815.359h-25.855l136.887,150.574v-28.438L303.273,815.359z M414.305,884.934v-28.434l-37.401-41.142h-25.847
	L414.305,884.934z M414.305,844.439v-28.434l-0.587-0.646h-25.849L414.305,844.439z M256.523,815.359v17.503l157.782,173.566
	v-28.436L266.449,815.359H256.523z M382.006,1011.391h25.846L256.523,844.924v23.895v2.702c0,0.573-0.054,1.136-0.132,1.69
	L382.006,1011.391z M256.523,966.411v28.442l15.035,16.538h25.856L256.523,966.411z M256.523,1011.391h4.077l-4.077-4.485V1011.391z
	"/>
</svg>
