<?xml version="1.0" encoding="utf-8"?>
<!-- Generator: Adobe Illustrator 16.0.0, SVG Export Plug-In . SVG Version: 6.00 Build 0)  -->
<!DOCTYPE svg PUBLIC "-//W3C//DTD SVG 1.1//EN" "http://www.w3.org/Graphics/SVG/1.1/DTD/svg11.dtd">
<svg version="1.1" id="Layer_1" xmlns="http://www.w3.org/2000/svg" xmlns:xlink="http://www.w3.org/1999/xlink" x="0px" y="0px"
	 width="300px" height="200px" viewBox="0.445 595.14 300 200" enable-background="new 0.445 595.14 300 200" xml:space="preserve">
<path d="M150.445,740.297c16.054,0,29.114-13.06,29.114-29.114c0-16.053-13.061-29.113-29.114-29.113
	c-16.053,0-29.114,13.061-29.114,29.113C121.331,727.237,134.392,740.297,150.445,740.297z M150.445,696.778
	c7.943,0,14.406,6.463,14.406,14.404c0,7.943-6.463,14.406-14.406,14.406c-7.942,0-14.405-6.463-14.405-14.406
	C136.04,703.241,142.502,696.778,150.445,696.778z M240.95,634.425c-82.708-48.432-157.692-12.788-179.935,0.124
	c0,0-0.047,0.029-0.052,0.034c-0.119,0.066-0.213,0.124-0.33,0.195c-1.422,0.814-6.713,3.332-10.48-1.91
	c-4.199-5.846,2.657-10.471,3.231-10.845c24.771-14.319,106.727-52.866,196.38,0.55c1.379,1.007,5.938,4.874,2.509,10.194
	c-3.998,6.209-11.328,1.643-11.328,1.643L240.95,634.425z M297.775,703.265c-33.983-47.667-88.667-76.038-147.335-76.038
	c-58.41,0-112.869,28.126-146.885,75.424c-2.155,4.123-3.731,10.869,1.378,18.975c34.098,46.148,87.886,73.515,145.506,73.515
	c57.676,0,111.514-27.419,145.607-73.639C300.915,712.716,299.461,706.555,297.775,703.265z M150.441,780.433
	c-53.665,0-103.759-25.792-135.014-69.251c31.255-43.456,81.348-69.248,135.014-69.248c53.669,0,103.767,25.792,135.021,69.248
	C254.208,754.641,204.11,780.433,150.441,780.433z"/>
</svg>
