<?xml version="1.0" encoding="utf-8"?>
<!-- Generator: Adobe Illustrator 16.0.0, SVG Export Plug-In . SVG Version: 6.00 Build 0)  -->
<!DOCTYPE svg PUBLIC "-//W3C//DTD SVG 1.1//EN" "http://www.w3.org/Graphics/SVG/1.1/DTD/svg11.dtd">
<svg version="1.1" id="Layer_1" xmlns="http://www.w3.org/2000/svg" xmlns:xlink="http://www.w3.org/1999/xlink" x="0px" y="0px"
	 width="800px" height="487px" viewBox="0.445 595.14 800 487" enable-background="new 0.445 595.14 800 487" xml:space="preserve">
<path d="M70.01,595.14c-38.238,0-69.565,31.329-69.565,69.57v347.859c0,38.24,31.327,69.57,69.565,69.57h660.869
	c38.238,0,69.566-31.33,69.566-69.57V664.711c0-38.241-31.328-69.57-69.566-69.57H70.01z M70.01,629.926h660.869
	c19.57,0,34.784,15.214,34.784,34.785v347.859c0,19.572-15.214,34.785-34.784,34.785H70.01c-19.57,0-34.783-15.213-34.783-34.785
	V664.711C35.227,645.139,50.439,629.926,70.01,629.926z M121.097,690.529c-9.595,0.488-16.976,8.662-16.487,18.257
	c0.239,4.688,2.363,9.081,5.888,12.18l133.425,122.022L111.042,955.771c-8.052,5.237-10.333,16.012-5.096,24.065
	c5.237,8.053,16.011,10.334,24.063,5.097c1.218-0.792,2.331-1.733,3.315-2.802l136.415-115.5l80.977,73.92
	c28.017,25.622,70.884,25.577,98.914,0l81.249-74.19l136.686,115.771c6.505,7.069,17.509,7.526,24.578,1.02
	c7.067-6.506,7.523-17.509,1.02-24.579c-0.984-1.067-2.098-2.01-3.315-2.801L556.694,842.717L690.39,720.966
	c7.131-6.449,7.684-17.462,1.233-24.594c-6.451-7.132-17.462-7.685-24.593-1.233c-0.004,0.003-0.008,0.007-0.011,0.011
	L426.259,914.733c-15.286,13.947-36.924,14.218-52.173,0.269L133.868,695.149c-3.456-3.208-8.065-4.875-12.773-4.62H121.097z"/>
</svg>
