<?xml version="1.0" encoding="utf-8"?>
<!-- Generator: Adobe Illustrator 16.0.0, SVG Export Plug-In . SVG Version: 6.00 Build 0)  -->
<!DOCTYPE svg PUBLIC "-//W3C//DTD SVG 1.1//EN" "http://www.w3.org/Graphics/SVG/1.1/DTD/svg11.dtd">
<svg version="1.1" id="Layer_1" xmlns="http://www.w3.org/2000/svg" xmlns:xlink="http://www.w3.org/1999/xlink" x="0px" y="0px"
	 width="45px" height="45px" viewBox="0 0 45 45" enable-background="new 0 0 45 45" xml:space="preserve">
<g>
	<path d="M34.189,23.649v8.645h-5.012v-8.064c0-2.025-0.724-3.407-2.537-3.407c-1.386,0-2.208,0.931-2.571,1.832
		c-0.132,0.323-0.167,0.771-0.167,1.222v8.418H18.89c0,0,0.067-13.659,0-15.073h5.013v2.136c-0.01,0.017-0.024,0.033-0.033,0.049
		h0.033v-0.049c0.666-1.024,1.854-2.489,4.516-2.489C31.717,16.867,34.189,19.021,34.189,23.649L34.189,23.649z M13.647,9.955
		c-1.714,0-2.836,1.125-2.836,2.604c0,1.447,1.089,2.605,2.77,2.605h0.034c1.748,0,2.834-1.158,2.834-2.605
		C16.416,11.08,15.362,9.955,13.647,9.955L13.647,9.955z M11.109,32.294h5.01V17.221h-5.01V32.294z M11.109,32.294"/>
</g>
<path d="M22.5,45C10.093,45,0,34.906,0,22.5S10.093,0,22.5,0S45,10.094,45,22.5S34.907,45,22.5,45z M22.5,2
	C11.196,2,2,11.196,2,22.5S11.196,43,22.5,43S43,33.804,43,22.5S33.804,2,22.5,2z"/>
</svg>
