<?xml version="1.0" encoding="utf-8"?>
<!-- Generator: Adobe Illustrator 16.0.0, SVG Export Plug-In . SVG Version: 6.00 Build 0)  -->
<!DOCTYPE svg PUBLIC "-//W3C//DTD SVG 1.1//EN" "http://www.w3.org/Graphics/SVG/1.1/DTD/svg11.dtd">
<svg version="1.1" id="Layer_1" xmlns="http://www.w3.org/2000/svg" xmlns:xlink="http://www.w3.org/1999/xlink" x="0px" y="0px"
	 width="300px" height="200px" viewBox="-0.225 841.445 300 200" enable-background="new -0.225 841.445 300 200"
	 xml:space="preserve">
<path d="M149.772,1041.445l-3.58-2.106c-2.184-1.289-53.891-32.065-83.394-78.698c-15.677-24.757-20.551-50.901-13.734-73.603
	c5.585-18.58,18.538-33.274,36.477-41.345c6.262-2.818,12.724-4.248,19.207-4.248c20.758,0,36.869,14.432,45.024,23.633
	c8.162-9.201,24.266-23.633,45.031-23.633c6.483,0,12.944,1.423,19.2,4.248c17.94,8.07,30.898,22.758,36.484,41.345
	c6.817,22.694,1.936,48.831-13.734,73.61c-29.504,46.625-81.209,77.401-83.394,78.69L149.772,1041.445z M104.741,855.571
	c-4.477,0-8.981,1.018-13.415,3.01c-14.147,6.369-24.358,17.926-28.749,32.527c-5.622,18.716-1.31,40.733,12.147,61.989
	c23.391,36.962,62.993,64.116,75.047,71.845c12.055-7.742,51.699-34.947,75.054-71.845c13.45-21.256,17.769-43.273,12.14-61.989
	c-4.391-14.608-14.602-26.165-28.756-32.527c-4.433-1.992-8.938-3.01-13.407-3.01c-22.373,0-38.989,24.536-39.153,24.785
	l-5.878,8.81l-5.871-8.81C143.738,880.121,126.971,855.571,104.741,855.571z"/>
</svg>
