<?xml version="1.0" encoding="utf-8"?>
<!-- Generator: Adobe Illustrator 16.0.0, SVG Export Plug-In . SVG Version: 6.00 Build 0)  -->
<!DOCTYPE svg PUBLIC "-//W3C//DTD SVG 1.1//EN" "http://www.w3.org/Graphics/SVG/1.1/DTD/svg11.dtd">
<svg version="1.1" id="Layer_1" xmlns="http://www.w3.org/2000/svg" xmlns:xlink="http://www.w3.org/1999/xlink" x="0px" y="0px"
	 width="50px" height="50px" viewBox="0 0 50 50" enable-background="new 0 0 50 50" xml:space="preserve">
<g>
	<path fill="#6ABA17" d="M50,44.331C50,47.449,47.449,50,44.331,50H5.669C2.551,50,0,47.449,0,44.331V5.669C0,2.551,2.551,0,5.669,0
		h38.662C47.449,0,50,2.551,50,5.669V44.331z"/>
</g>
<path fill="#FFFFFF" d="M16.164,24.657l0.577-16.036c0.029-0.809,0.715-1.47,1.524-1.47h13.127c0.81,0,1.495,0.661,1.524,1.47
	l0.577,16.036H16.164z M34.32,25.365H15.34c-0.811,0-1.472,0.661-1.472,1.471v1.104c0,0.81,0.661,1.472,1.472,1.472h0.802l-1.288,13
	h1.479l0.41-4.146h16.173l0.41,4.146h1.479l-1.286-13h0.802c0.808,0,1.47-0.662,1.47-1.472v-1.104
	C35.79,26.026,35.128,25.365,34.32,25.365z M32.771,36.795H16.889l0.731-7.384h14.418L32.771,36.795z"/>
</svg>
