<?xml version="1.0" encoding="utf-8"?>
<!-- Generator: Adobe Illustrator 16.0.0, SVG Export Plug-In . SVG Version: 6.00 Build 0)  -->
<!DOCTYPE svg PUBLIC "-//W3C//DTD SVG 1.1//EN" "http://www.w3.org/Graphics/SVG/1.1/DTD/svg11.dtd">
<svg version="1.1" id="Layer_1" xmlns="http://www.w3.org/2000/svg" xmlns:xlink="http://www.w3.org/1999/xlink" x="0px" y="0px"
	 width="202px" height="37px" viewBox="0 0 202 37" enable-background="new 0 0 202 37" xml:space="preserve">
<path fill="#FFFFFF" d="M51.208,30.029h3.952v-5.75h3.054l3.9,5.75h4.62l-4.389-6.416c2.284-0.848,3.85-2.67,3.85-5.569
	c0-1.745-0.538-3.156-1.539-4.157c-1.181-1.181-2.952-1.821-5.235-1.821h-8.212L51.208,30.029L51.208,30.029z M55.159,20.79v-5.158
	h3.926c1.925,0,3.105,0.873,3.105,2.565c0,1.565-1.104,2.593-3.028,2.593H55.159L55.159,20.79z"/>
<path fill="#FFFFFF" d="M74.273,30.336c2.489,0,4.336-0.975,5.62-2.566l-2.232-1.976c-1.078,1.002-2.028,1.411-3.336,1.411
	c-1.745,0-2.977-0.924-3.362-2.693h9.573c0.025-0.359,0.051-0.72,0.051-1.027c0-3.898-2.104-7.466-6.698-7.466
	c-4.003,0-6.8,3.233-6.8,7.16C67.088,27.438,70.141,30.336,74.273,30.336L74.273,30.336z M70.911,22.072
	c0.308-1.77,1.36-2.924,2.977-2.924c1.643,0,2.669,1.179,2.9,2.924H70.911L70.911,22.072z"/>
<path fill="#FFFFFF" d="M85.957,30.285c1.899,0,3.208-0.691,4.157-1.746v1.49h3.773v-7.98c0-1.849-0.461-3.364-1.489-4.391
	c-0.975-0.976-2.515-1.538-4.645-1.538c-2.335,0-3.824,0.437-5.338,1.104L83.39,20.2c1.258-0.462,2.311-0.745,3.798-0.745
	c1.95,0,2.951,0.898,2.951,2.516v0.231c-0.975-0.334-1.976-0.565-3.362-0.565c-3.259,0-5.543,1.387-5.543,4.389
	C81.235,28.798,83.365,30.285,85.957,30.285L85.957,30.285z M87.137,27.591c-1.257,0-2.13-0.616-2.13-1.668
	c0-1.284,1.027-1.95,2.695-1.95c0.949,0,1.822,0.205,2.489,0.512v0.695C90.191,26.589,88.959,27.591,87.137,27.591L87.137,27.591z"
	/>
<polygon fill="#FFFFFF" points="96.038,30.029 99.938,30.029 99.938,11.294 96.038,11.294 "/>
<path fill="#FFFFFF" d="M107.326,30.262c1.309,0,2.259-0.311,3.08-0.798v-3.131c-0.564,0.31-1.206,0.487-1.926,0.487
	c-0.871,0-1.258-0.438-1.258-1.334v-5.877h3.233v-3.336h-3.233v-3.516h-3.9v3.516h-1.643v3.336h1.643v6.519
	C103.323,29.311,104.939,30.262,107.326,30.262L107.326,30.262z"/>
<path fill="#FFFFFF" d="M116.645,34.211c2.334,0,3.463-1.051,4.517-3.848l5.286-14.09h-4.055l-3.004,9.366l-3.131-9.366h-4.132
	l5.39,13.807c-0.334,0.691-0.692,0.896-1.359,0.896c-0.514,0-1.155-0.23-1.67-0.539l-1.307,2.824
	C114.18,33.854,115.232,34.211,116.645,34.211L116.645,34.211z"/>
<path fill="#FFFFFF" d="M128.676,30.029h2.028v-6.34h4.36c3.826,0,7.061-2.002,7.061-5.878c0-3.591-2.67-5.746-6.727-5.746h-6.724
	L128.676,30.029L128.676,30.029z M130.705,21.841v-7.903h4.542c2.899,0,4.823,1.335,4.823,3.901c0,2.413-1.948,4.002-4.926,4.002
	H130.705L130.705,21.841z"/>
<polygon fill="#FFFFFF" points="144.072,30.029 146.048,30.029 146.048,11.294 144.072,11.294 "/>
<path fill="#FFFFFF" d="M153.368,30.313c2.335,0,3.85-1.08,4.772-2.26v1.977h1.949V21.92c0-1.693-0.461-2.977-1.385-3.899
	c-0.95-0.951-2.413-1.463-4.285-1.463c-1.951,0-3.361,0.461-4.824,1.129l0.59,1.616c1.231-0.565,2.463-0.949,4.028-0.949
	c2.489,0,3.927,1.232,3.927,3.591v0.412c-1.182-0.334-2.361-0.565-4.055-0.565c-3.361,0-5.672,1.489-5.672,4.338
	C148.415,28.9,150.878,30.313,153.368,30.313L153.368,30.313z M153.752,28.721c-1.796,0-3.336-0.977-3.336-2.645
	c0-1.643,1.41-2.721,3.876-2.721c1.616,0,2.897,0.283,3.874,0.564v1.23C158.167,27.257,156.189,28.721,153.752,28.721
	L153.752,28.721z"/>
<path fill="#FFFFFF" d="M162.189,30.029h1.978v-7.598c0-2.488,1.692-4.157,3.978-4.157c2.336,0,3.67,1.54,3.67,4.002v7.752h1.976
	V21.79c0-3.156-1.872-5.312-5.08-5.312c-2.284,0-3.671,1.155-4.542,2.592v-2.31h-1.977v13.269H162.189z"/>
<path fill="#FFFFFF" d="M177.217,24.204h10.521c0.025-0.31,0.025-0.515,0.025-0.695c0-3.899-2.258-7.03-6.186-7.03
	c-3.669,0-6.363,3.08-6.363,6.927c0,4.135,2.977,6.931,6.621,6.931c2.516,0,4.132-0.999,5.465-2.489l-1.23-1.102
	c-1.077,1.129-2.361,1.872-4.184,1.872C179.553,28.617,177.5,27.001,177.217,24.204L177.217,24.204z M177.217,22.611
	c0.282-2.565,2.027-4.465,4.311-4.465c2.617,0,4.005,2.054,4.236,4.465H177.217L177.217,22.611z"/>
<polygon fill="#FFFFFF" points="188.271,30.029 190.479,30.029 194.611,24.613 198.716,30.029 201,30.029 195.766,23.229 
	200.795,16.761 198.588,16.761 194.662,21.893 190.734,16.761 188.477,16.761 193.48,23.279 "/>
<polygon fill="#E34F25" points="28.621,36.27 25.802,31.164 25.86,31.164 21.952,24.086 11.513,24.086 15.223,31.164 15.309,31.164 
	17.983,36.27 "/>
<path fill="#F58220" d="M28.611,1H9.979H1l4.735,9.785H16.62h-2.175h14.359c1.535,0,2.301,0.719,2.301,1.728
	c0,1.102-0.767,1.726-2.301,1.726h-7.572H16.62h-0.18l-5.09,9.785h17.261c8.442,0,12.853-3.98,12.853-11.51
	C41.464,4.98,37.053,1,28.611,1L28.611,1z"/>
</svg>
