<?xml version="1.0" encoding="utf-8"?>
<!-- Generator: Adobe Illustrator 16.0.0, SVG Export Plug-In . SVG Version: 6.00 Build 0)  -->
<!DOCTYPE svg PUBLIC "-//W3C//DTD SVG 1.1//EN" "http://www.w3.org/Graphics/SVG/1.1/DTD/svg11.dtd">
<svg version="1.1" id="Layer_1" xmlns="http://www.w3.org/2000/svg" xmlns:xlink="http://www.w3.org/1999/xlink" x="0px" y="0px"
	 width="40px" height="40px" viewBox="-0.17 498.95 40 40" enable-background="new -0.17 498.95 40 40" xml:space="preserve">
<path fill="#F58220" d="M13.402,505.701c-0.558-2.15-2.499-3.751-4.822-3.751s-4.265,1.601-4.823,3.751H-0.17v2.499h3.927
	c0.558,2.151,2.499,3.751,4.823,3.751s4.264-1.6,4.822-3.751H39.83v-2.499H13.402z M8.58,509.45c-1.379,0-2.5-1.121-2.5-2.499
	c0-1.379,1.122-2.5,2.5-2.5c1.378,0,2.5,1.121,2.5,2.5C11.08,508.329,9.958,509.45,8.58,509.45z"/>
<path fill="#F58220" d="M31.08,514.451c-2.324,0-4.264,1.601-4.822,3.751H-0.17v2.5h26.428c0.558,2.15,2.499,3.75,4.822,3.75
	s4.264-1.6,4.823-3.75h3.927v-2.5h-3.927C35.344,516.049,33.403,514.451,31.08,514.451z M31.08,521.95c-1.378,0-2.5-1.122-2.5-2.5
	s1.122-2.5,2.5-2.5c1.379,0,2.5,1.122,2.5,2.5S32.458,521.95,31.08,521.95z"/>
<path fill="#F58220" d="M16.079,526.949c-2.324,0-4.265,1.6-4.823,3.751H-0.17v2.499h11.427c0.558,2.15,2.499,3.751,4.823,3.751
	c2.323,0,4.264-1.601,4.822-3.751H39.83V530.7H20.901C20.343,528.548,18.402,526.949,16.079,526.949z M16.079,534.449
	c-1.379,0-2.5-1.121-2.5-2.5c0-1.378,1.122-2.5,2.5-2.5c1.378,0,2.5,1.122,2.5,2.5C18.579,533.328,17.458,534.449,16.079,534.449z"
	/>
</svg>
