<?xml version="1.0" encoding="utf-8"?>
<!-- Generator: Adobe Illustrator 16.0.0, SVG Export Plug-In . SVG Version: 6.00 Build 0)  -->
<!DOCTYPE svg PUBLIC "-//W3C//DTD SVG 1.1//EN" "http://www.w3.org/Graphics/SVG/1.1/DTD/svg11.dtd">
<svg version="1.1" id="Layer_1" xmlns="http://www.w3.org/2000/svg" xmlns:xlink="http://www.w3.org/1999/xlink" x="0px" y="0px"
	 width="50px" height="50px" viewBox="0 0 50 50" enable-background="new 0 0 50 50" xml:space="preserve">
<g>
	<path fill="#F36E21" d="M50,44.331C50,47.449,47.449,50,44.331,50H5.669C2.551,50,0,47.449,0,44.331V5.669C0,2.551,2.551,0,5.669,0
		h38.662C47.449,0,50,2.551,50,5.669V44.331z"/>
</g>
<path fill="#FFFFFF" d="M37.384,24.134c0-0.433-0.315-0.747-0.746-0.747c-0.159,0-0.316,0-0.472,0c-0.903,0-1.535,1.022-1.535,1.022
	c-0.038,0.118-0.155,0.236-0.274,0.433c-0.116-0.394-0.195-0.708-0.274-1.022c-0.393-1.375-0.981-2.635-1.809-3.813
	c-0.55-0.827-1.375-1.101-2.32-1.259c-1.649-0.274-3.302-0.313-4.992-0.313c-1.651,0-3.341,0-4.991,0.313
	c-0.903,0.158-1.729,0.473-2.32,1.259c-0.825,1.178-1.415,2.438-1.808,3.813c-0.077,0.314-0.158,0.629-0.275,1.022
	c-0.119-0.196-0.197-0.314-0.274-0.433c0,0-0.63-1.022-1.534-1.022c-0.158,0-0.313,0-0.471,0c-0.433,0-0.71,0.314-0.747,0.747
	c0,0.314,0,0.63,0,0.944c0,0.471,0.314,0.786,0.786,0.786c0.473,0,0.943,0,1.375,0c0.196,0,0.354,0,0.551,0
	c0,0.039,0.04,0.039,0.04,0.077c-0.04,0.041-0.117,0.041-0.159,0.119c-1.179,1.14-1.807,2.517-1.769,4.127
	c0,0.983,0.118,1.967,0.197,2.948c0.078,0.747,0.275,1.494,0.591,2.163c0.155,0.275,0.313,0.512,0.667,0.59
	c0.157,0.04,0.197,0.118,0.157,0.274c0,0.393,0,0.827,0,1.221c0,0.548,0.315,0.902,0.903,0.902c0.473,0,0.984,0,1.456,0
	c0.628,0,0.943-0.313,0.943-0.943c0-0.314,0-0.629,0-0.982c2.201,0.157,4.402,0.236,6.643,0.236c2.242,0,4.403-0.079,6.645-0.236
	c0,0.354,0,0.668,0,0.982c0,0.63,0.313,0.943,0.944,0.943c0.471,0,0.981,0,1.453,0c0.55,0,0.904-0.354,0.904-0.902
	c0-0.394,0-0.828,0-1.221c0-0.118,0-0.234,0.157-0.274c0.353-0.078,0.51-0.276,0.669-0.59c0.353-0.708,0.51-1.416,0.588-2.163
	c0.118-0.981,0.196-1.965,0.196-2.948c0.04-1.649-0.628-3.026-1.768-4.127c-0.039-0.039-0.118-0.078-0.157-0.119
	c0-0.038,0.039-0.038,0.039-0.077c0.196,0,0.354,0,0.551,0c0.472,0,0.942,0,1.375,0c0.473,0,0.787-0.315,0.787-0.786
	C37.384,24.764,37.384,24.448,37.384,24.134z M17.02,25.078c0.355-1.453,0.906-2.87,1.691-4.169
	c0.039-0.077,0.079-0.115,0.158-0.156l0,0l0,0c0.039-0.039,0.118-0.077,0.197-0.116c0.471-0.199,1.964-0.669,5.936-0.669
	c3.97,0.039,5.423,0.47,5.935,0.669c0.079,0.039,0.158,0.039,0.196,0.116l0,0l0,0c0.041,0.041,0.119,0.118,0.158,0.156
	c0.786,1.299,1.336,2.716,1.69,4.169c0.038,0.118,0.038,0.196,0.038,0.276C30.348,25.116,27.674,25,25.002,25
	c-2.675,0-5.348,0.116-8.021,0.354C17.02,25.313,17.02,25.196,17.02,25.078z M17.455,31.366c-0.985,0-1.731-0.784-1.731-1.729
	c0-0.943,0.787-1.729,1.731-1.729c0.941,0,1.727,0.785,1.727,1.729C19.182,30.582,18.437,31.366,17.455,31.366z M32.55,31.366
	c-0.983,0-1.731-0.784-1.731-1.729c0-0.943,0.787-1.729,1.731-1.729c0.981,0,1.729,0.785,1.729,1.729
	C34.278,30.582,33.492,31.366,32.55,31.366z M43.555,39.19h-0.982c-0.393,0-0.706-0.314-0.706-0.707V17.412
	c0-2.32-1.887-4.207-4.207-4.207H12.342c-2.318,0-4.205,1.887-4.205,4.207v21.071c0,0.393-0.314,0.707-0.707,0.707H6.446
	c-0.394,0-0.708-0.314-0.708-0.707V17.412c0-3.656,2.949-6.603,6.604-6.603h25.317c3.656,0,6.603,2.946,6.603,6.603v21.071
	C44.262,38.876,43.949,39.19,43.555,39.19z"/>
</svg>
