<?xml version="1.0" encoding="utf-8"?>
<!-- Generator: Adobe Illustrator 16.0.0, SVG Export Plug-In . SVG Version: 6.00 Build 0)  -->
<!DOCTYPE svg PUBLIC "-//W3C//DTD SVG 1.1//EN" "http://www.w3.org/Graphics/SVG/1.1/DTD/svg11.dtd">
<svg version="1.1" id="Layer_1" xmlns="http://www.w3.org/2000/svg" xmlns:xlink="http://www.w3.org/1999/xlink" x="0px" y="0px"
	 width="459px" height="194px" viewBox="0 0 459 194" enable-background="new 0 0 459 194" xml:space="preserve">
<path fill="#FFFFFF" d="M1.497,85.182c0.499,0,0.713-0.213,0.713-0.713V63.371c0-0.285,0.143-0.427,0.428-0.427h13.4
	c9.124,0,14.469-4.847,14.469-13.115s-5.346-13.115-14.469-13.115H0.713C0.214,36.713,0,36.927,0,37.426v47.043
	c0,0.5,0.214,0.713,0.713,0.713H1.497z M2.637,60.876c-0.285,0-0.428-0.143-0.428-0.428V39.208c0-0.285,0.143-0.427,0.428-0.427
	h13.4c7.983,0,12.26,3.92,12.26,11.048s-4.277,11.048-12.26,11.048H2.637z M41.266,84.469c0,0.5,0.214,0.713,0.713,0.713h26.658
	c0.499,0,0.712-0.213,0.712-0.713v-0.641c0-0.5-0.213-0.713-0.712-0.713H43.903c-0.285,0-0.428-0.143-0.428-0.428v-20.67
	c0-0.285,0.143-0.428,0.428-0.428h21.384c0.499,0,0.713-0.214,0.713-0.713v-0.642c0-0.499-0.214-0.712-0.713-0.712H43.903
	c-0.285,0-0.428-0.143-0.428-0.428V39.208c0-0.285,0.143-0.427,0.428-0.427h24.734c0.499,0,0.712-0.214,0.712-0.713v-0.642
	c0-0.499-0.213-0.713-0.712-0.713H41.979c-0.499,0-0.713,0.214-0.713,0.713V84.469z M110.972,85.182
	c0.499,0,0.642-0.213,0.356-0.713l-10.834-22.31c6.629-1.354,10.335-5.702,10.335-12.545c0-8.197-5.275-12.901-14.47-12.901H81.178
	c-0.499,0-0.713,0.214-0.713,0.713v47.043c0,0.5,0.214,0.713,0.713,0.713h0.784c0.499,0,0.713-0.213,0.713-0.713V62.943
	c0-0.285,0.143-0.428,0.428-0.428H96.36c0.855,0,1.497,0,1.925-0.071l10.621,22.097c0.214,0.427,0.499,0.641,0.855,0.641H110.972z
	 M83.103,60.448c-0.285,0-0.428-0.143-0.428-0.428V39.208c0-0.285,0.143-0.427,0.428-0.427H96.36c8.055,0,12.26,3.777,12.26,10.834
	s-4.206,10.834-12.26,10.834H83.103z M124.154,84.469c0,0.5,0.214,0.713,0.713,0.713h0.784c0.499,0,0.713-0.213,0.713-0.713V62.516
	c0-0.285,0.143-0.428,0.428-0.428h21.383c0.499,0,0.713-0.214,0.713-0.713v-0.642c0-0.499-0.214-0.713-0.713-0.713h-21.383
	c-0.285,0-0.428-0.142-0.428-0.428V39.208c0-0.285,0.143-0.427,0.428-0.427h24.734c0.499,0,0.712-0.214,0.712-0.713v-0.642
	c0-0.499-0.214-0.713-0.712-0.713h-26.658c-0.499,0-0.713,0.214-0.713,0.713V84.469z M162.213,75.346
	c2.281,7.057,7.271,10.549,15.04,10.549c7.77,0,12.759-3.492,15.04-10.549c0.927-2.852,1.426-7.627,1.426-14.398
	s-0.499-11.547-1.426-14.398C190.011,39.493,185.022,36,177.252,36c-7.769,0-12.759,3.493-15.04,10.549
	c-0.927,2.852-1.426,7.627-1.426,14.398S161.286,72.494,162.213,75.346z M190.154,74.775c-1.996,6.059-6.272,9.053-12.901,9.053
	s-10.906-2.994-12.901-9.053c-0.926-2.709-1.354-7.342-1.354-13.828s0.428-11.119,1.354-13.828
	c1.996-6.059,6.272-9.052,12.901-9.052s10.906,2.993,12.901,9.052c0.927,2.708,1.354,7.341,1.354,13.828
	S191.081,72.066,190.154,74.775z M236.48,85.182c0.499,0,0.642-0.213,0.356-0.713l-10.834-22.31
	c6.629-1.354,10.335-5.702,10.335-12.545c0-8.197-5.274-12.901-14.47-12.901h-15.182c-0.499,0-0.713,0.214-0.713,0.713v47.043
	c0,0.5,0.214,0.713,0.713,0.713h0.784c0.499,0,0.713-0.213,0.713-0.713V62.943c0-0.285,0.142-0.428,0.427-0.428h13.258
	c0.855,0,1.497,0,1.925-0.071l10.62,22.097c0.214,0.427,0.499,0.641,0.855,0.641H236.48z M208.61,60.448
	c-0.285,0-0.427-0.143-0.427-0.428V39.208c0-0.285,0.142-0.427,0.427-0.427h13.258c8.055,0,12.26,3.777,12.26,10.834
	s-4.206,10.834-12.26,10.834H208.61z M249.663,84.469c0,0.5,0.214,0.713,0.713,0.713h0.784c0.499,0,0.713-0.213,0.713-0.713V42.415
	h0.214l15.824,34.642c0.214,0.499,0.642,0.712,1.212,0.712h0.285c0.57,0,0.998-0.214,1.211-0.712l15.824-34.642h0.214v42.054
	c0,0.5,0.214,0.713,0.712,0.713h0.784c0.499,0,0.713-0.213,0.713-0.713V37.426c0-0.499-0.214-0.713-0.713-0.713h-0.998
	c-0.428,0-0.712,0.214-0.926,0.713l-16.822,37.207h-0.214L252.3,37.426c-0.214-0.499-0.499-0.713-0.927-0.713h-0.998
	c-0.499,0-0.713,0.214-0.713,0.713V84.469z M298.982,84.469c-0.143,0.5,0,0.713,0.499,0.713h0.927c0.427,0,0.712-0.213,0.926-0.713
	l4.776-13.186h22.31l4.704,13.186c0.214,0.5,0.499,0.713,0.927,0.713h0.998c0.499,0,0.642-0.213,0.499-0.713l-16.964-47.043
	c-0.143-0.499-0.428-0.713-0.784-0.713h-0.927c-0.356,0-0.641,0.214-0.784,0.713L298.982,84.469z M317.229,40.49h0.143
	l10.264,28.726h-20.813L317.229,40.49z M345.238,84.469c0,0.5,0.214,0.713,0.712,0.713h0.784c0.499,0,0.713-0.213,0.713-0.713
	v-42.98h0.214l26.658,42.98c0.285,0.5,0.713,0.713,1.212,0.713h0.641c0.499,0,0.713-0.213,0.713-0.713V37.426
	c0-0.499-0.214-0.713-0.713-0.713h-0.784c-0.499,0-0.713,0.214-0.713,0.713v42.98h-0.214l-26.658-42.98
	c-0.285-0.499-0.713-0.713-1.212-0.713h-0.642c-0.499,0-0.712,0.214-0.712,0.713V84.469z M390.424,75.56
	c2.209,6.914,7.128,10.335,14.612,10.335c6.486,0,11.119-2.779,13.828-8.269c0.214-0.427,0.214-0.712-0.143-0.926l-0.712-0.356
	c-0.356-0.214-0.713-0.143-0.927,0.285c-2.637,4.775-6.629,7.199-12.046,7.199c-6.344,0-10.549-2.923-12.474-8.839
	c-0.784-2.423-1.211-7.128-1.211-14.042s0.428-11.618,1.211-14.042c1.925-5.916,6.13-8.838,12.474-8.838
	c5.417,0,9.409,2.423,12.046,7.199c0.214,0.427,0.57,0.499,0.927,0.284l0.712-0.355c0.356-0.214,0.356-0.5,0.143-0.927
	C416.155,38.78,411.522,36,405.036,36c-7.484,0-12.403,3.422-14.612,10.335c-0.855,2.566-1.283,7.413-1.283,14.612
	S389.568,72.993,390.424,75.56z M430.478,84.469c0,0.5,0.214,0.713,0.713,0.713h26.658c0.499,0,0.712-0.213,0.712-0.713v-0.641
	c0-0.5-0.213-0.713-0.712-0.713h-24.734c-0.285,0-0.428-0.143-0.428-0.428v-20.67c0-0.285,0.143-0.428,0.428-0.428h21.384
	c0.499,0,0.713-0.214,0.713-0.713v-0.642c0-0.499-0.214-0.712-0.713-0.712h-21.384c-0.285,0-0.428-0.143-0.428-0.428V39.208
	c0-0.285,0.143-0.427,0.428-0.427h24.734c0.499,0,0.712-0.214,0.712-0.713v-0.642c0-0.499-0.213-0.713-0.712-0.713h-26.658
	c-0.499,0-0.713,0.214-0.713,0.713V84.469z"/>
<path fill="#EF782B" d="M38.309,155.741c0,0.499,0.214,0.713,0.713,0.713H65.68c0.499,0,0.713-0.214,0.713-0.713V155.1
	c0-0.499-0.214-0.712-0.713-0.712H40.946c-0.285,0-0.427-0.143-0.427-0.428v-20.67c0-0.286,0.142-0.428,0.427-0.428H62.33
	c0.499,0,0.713-0.214,0.713-0.713v-0.642c0-0.499-0.214-0.713-0.713-0.713H40.946c-0.285,0-0.427-0.143-0.427-0.428V110.48
	c0-0.285,0.142-0.428,0.427-0.428H65.68c0.499,0,0.713-0.213,0.713-0.713v-0.642c0-0.499-0.214-0.713-0.713-0.713H39.022
	c-0.499,0-0.713,0.214-0.713,0.713V155.741z M105.449,156.454c0.499,0,0.642-0.214,0.356-0.713l-14.897-24.876l13.258-22.168
	c0.285-0.499,0.143-0.713-0.356-0.713h-1.211c-0.356,0-0.642,0.214-0.855,0.571l-12.046,20.243h-0.071L77.65,108.555
	c-0.214-0.356-0.499-0.571-0.855-0.571h-1.283c-0.499,0-0.642,0.214-0.356,0.713l13.258,22.168l-14.897,24.876
	c-0.285,0.499-0.143,0.713,0.356,0.713h1.211c0.356,0,0.642-0.214,0.855-0.57l13.686-22.951h0.071l13.614,22.951
	c0.214,0.356,0.499,0.57,0.855,0.57H105.449z M113.785,146.832c2.209,6.914,7.128,10.335,14.612,10.335
	c6.487,0,11.12-2.78,13.828-8.269c0.214-0.427,0.214-0.713-0.143-0.927l-0.712-0.355c-0.356-0.214-0.713-0.143-0.927,0.284
	c-2.637,4.776-6.629,7.199-12.046,7.199c-6.343,0-10.549-2.922-12.474-8.838c-0.784-2.424-1.211-7.128-1.211-14.042
	s0.428-11.619,1.211-14.042c1.925-5.916,6.13-8.839,12.474-8.839c5.417,0,9.409,2.424,12.046,7.199
	c0.214,0.428,0.57,0.5,0.927,0.285l0.712-0.356c0.356-0.214,0.356-0.499,0.143-0.927c-2.708-5.488-7.341-8.268-13.828-8.268
	c-7.484,0-12.402,3.421-14.612,10.335c-0.855,2.566-1.283,7.413-1.283,14.612S112.93,144.266,113.785,146.832z M153.839,155.741
	c0,0.499,0.214,0.713,0.713,0.713h26.658c0.499,0,0.712-0.214,0.712-0.713V155.1c0-0.499-0.214-0.712-0.712-0.712h-24.734
	c-0.285,0-0.428-0.143-0.428-0.428v-20.67c0-0.286,0.143-0.428,0.428-0.428h21.384c0.499,0,0.712-0.214,0.712-0.713v-0.642
	c0-0.499-0.213-0.713-0.712-0.713h-21.384c-0.285,0-0.428-0.143-0.428-0.428V110.48c0-0.285,0.143-0.428,0.428-0.428h24.734
	c0.499,0,0.712-0.213,0.712-0.713v-0.642c0-0.499-0.214-0.713-0.712-0.713h-26.658c-0.499,0-0.713,0.214-0.713,0.713V155.741z
	 M193.038,155.741c0,0.499,0.214,0.713,0.713,0.713h26.658c0.499,0,0.713-0.214,0.713-0.713V155.1c0-0.499-0.214-0.712-0.713-0.712
	h-24.733c-0.285,0-0.428-0.143-0.428-0.428v-45.262c0-0.499-0.214-0.713-0.713-0.713h-0.784c-0.499,0-0.713,0.214-0.713,0.713
	V155.741z M230.384,155.741c0,0.499,0.214,0.713,0.713,0.713h26.658c0.499,0,0.713-0.214,0.713-0.713V155.1
	c0-0.499-0.214-0.712-0.713-0.712h-24.733c-0.285,0-0.428-0.143-0.428-0.428v-45.262c0-0.499-0.214-0.713-0.713-0.713h-0.784
	c-0.499,0-0.713,0.214-0.713,0.713V155.741z M267.729,155.741c0,0.499,0.214,0.713,0.713,0.713h26.658
	c0.499,0,0.713-0.214,0.713-0.713V155.1c0-0.499-0.214-0.712-0.713-0.712h-24.733c-0.285,0-0.428-0.143-0.428-0.428v-20.67
	c0-0.286,0.143-0.428,0.428-0.428h21.383c0.499,0,0.713-0.214,0.713-0.713v-0.642c0-0.499-0.214-0.713-0.713-0.713h-21.383
	c-0.285,0-0.428-0.143-0.428-0.428V110.48c0-0.285,0.143-0.428,0.428-0.428h24.733c0.499,0,0.713-0.213,0.713-0.713v-0.642
	c0-0.499-0.214-0.713-0.713-0.713h-26.658c-0.499,0-0.713,0.214-0.713,0.713V155.741z M306.929,155.741
	c0,0.499,0.214,0.713,0.712,0.713h0.784c0.499,0,0.713-0.214,0.713-0.713v-42.98h0.214l26.658,42.98
	c0.285,0.499,0.712,0.713,1.211,0.713h0.642c0.499,0,0.713-0.214,0.713-0.713v-47.044c0-0.499-0.214-0.713-0.713-0.713h-0.784
	c-0.499,0-0.713,0.214-0.713,0.713v42.981h-0.214l-26.658-42.981c-0.285-0.499-0.713-0.713-1.212-0.713h-0.642
	c-0.499,0-0.712,0.214-0.712,0.713V155.741z M352.115,146.832c2.209,6.914,7.127,10.335,14.612,10.335
	c6.486,0,11.12-2.78,13.828-8.269c0.214-0.427,0.214-0.713-0.143-0.927l-0.713-0.355c-0.356-0.214-0.713-0.143-0.926,0.284
	c-2.638,4.776-6.629,7.199-12.046,7.199c-6.344,0-10.549-2.922-12.474-8.838c-0.784-2.424-1.212-7.128-1.212-14.042
	s0.428-11.619,1.212-14.042c1.924-5.916,6.13-8.839,12.474-8.839c5.417,0,9.409,2.424,12.046,7.199
	c0.213,0.428,0.57,0.5,0.926,0.285l0.713-0.356c0.356-0.214,0.356-0.499,0.143-0.927c-2.708-5.488-7.342-8.268-13.828-8.268
	c-7.484,0-12.402,3.421-14.612,10.335c-0.855,2.566-1.283,7.413-1.283,14.612S351.259,144.266,352.115,146.832z M392.169,155.741
	c0,0.499,0.214,0.713,0.713,0.713h26.658c0.499,0,0.713-0.214,0.713-0.713V155.1c0-0.499-0.214-0.712-0.713-0.712h-24.733
	c-0.285,0-0.428-0.143-0.428-0.428v-20.67c0-0.286,0.143-0.428,0.428-0.428h21.383c0.499,0,0.713-0.214,0.713-0.713v-0.642
	c0-0.499-0.214-0.713-0.713-0.713h-21.383c-0.285,0-0.428-0.143-0.428-0.428V110.48c0-0.285,0.143-0.428,0.428-0.428h24.733
	c0.499,0,0.713-0.213,0.713-0.713v-0.642c0-0.499-0.214-0.713-0.713-0.713h-26.658c-0.499,0-0.713,0.214-0.713,0.713V155.741z"/>
<rect fill="#FFFFFF" width="459" height="2"/>
<rect y="192" fill="#FFFFFF" width="459" height="2"/>
</svg>
