<?xml version="1.0" encoding="utf-8"?>
<!-- Generator: Adobe Illustrator 16.0.0, SVG Export Plug-In . SVG Version: 6.00 Build 0)  -->
<!DOCTYPE svg PUBLIC "-//W3C//DTD SVG 1.1//EN" "http://www.w3.org/Graphics/SVG/1.1/DTD/svg11.dtd">
<svg version="1.1" id="Layer_1" xmlns="http://www.w3.org/2000/svg" xmlns:xlink="http://www.w3.org/1999/xlink" x="0px" y="0px"
	 width="150px" height="150px" viewBox="0 0 150 150" enable-background="new 0 0 150 150" xml:space="preserve">
<g>
	<path fill="#1D1D1B" d="M75.004,98.354c-12.88,0-23.354-10.472-23.354-23.352c0-12.882,10.475-23.354,23.354-23.354
		c12.854,0,23.348,10.471,23.348,23.354C98.352,87.881,87.879,98.354,75.004,98.354L75.004,98.354z"/>
	<path fill="#1D1D1B" d="M130.275,75c0,30.529-24.748,55.275-55.275,55.275S19.725,105.529,19.725,75
		c0-30.528,24.748-55.275,55.275-55.275S130.275,44.472,130.275,75z M75,27.794c-26.07,0-47.206,21.135-47.206,47.206
		c0,26.072,21.136,47.205,47.206,47.205c26.069,0,47.205-21.133,47.205-47.205C122.205,48.929,101.069,27.794,75,27.794z"/>
</g>
</svg>
