<?xml version="1.0" encoding="utf-8"?>
<!-- Generator: Adobe Illustrator 16.0.0, SVG Export Plug-In . SVG Version: 6.00 Build 0)  -->
<!DOCTYPE svg PUBLIC "-//W3C//DTD SVG 1.1//EN" "http://www.w3.org/Graphics/SVG/1.1/DTD/svg11.dtd">
<svg version="1.1" id="Layer_1" xmlns="http://www.w3.org/2000/svg" xmlns:xlink="http://www.w3.org/1999/xlink" x="0px" y="0px"
	 width="150px" height="150px" viewBox="0 0 150 150" enable-background="new 0 0 150 150" xml:space="preserve">
<path fill="#1D1D1B" d="M75.013,145.865c-1.119,0-2.188-0.468-2.965-1.271c-2.118-2.271-52.25-55.726-52.25-85.25
	C19.8,28.885,44.553,4.135,75.013,4.135c30.432,0,55.188,24.751,55.188,55.209c0,29.525-50.111,82.979-52.252,85.25
	C77.191,145.398,76.125,145.865,75.013,145.865L75.013,145.865z M75.013,12.224c-25.983,0-47.105,21.145-47.105,47.099
	c0,20.457,31.618,59.493,47.105,76.51c15.461-17.018,47.098-56.054,47.098-76.51C122.111,33.369,100.967,12.224,75.013,12.224
	L75.013,12.224z M75.013,76.616c-12.879,0-23.354-10.472-23.354-23.352c0-12.882,10.475-23.354,23.354-23.354
	c12.854,0,23.348,10.471,23.348,23.354C98.361,66.143,87.888,76.616,75.013,76.616L75.013,76.616z M75.013,38.025
	c-8.424,0-15.266,6.837-15.266,15.239c0,8.419,6.842,15.263,15.266,15.263c8.396,0,15.238-6.844,15.238-15.263
	C90.252,44.862,83.41,38.025,75.013,38.025L75.013,38.025z"/>
</svg>
