<?xml version="1.0" encoding="utf-8"?>
<!-- Generator: Adobe Illustrator 16.0.0, SVG Export Plug-In . SVG Version: 6.00 Build 0)  -->
<!DOCTYPE svg PUBLIC "-//W3C//DTD SVG 1.1//EN" "http://www.w3.org/Graphics/SVG/1.1/DTD/svg11.dtd">
<svg version="1.1" id="Layer_1" xmlns="http://www.w3.org/2000/svg" xmlns:xlink="http://www.w3.org/1999/xlink" x="0px" y="0px"
	 width="222px" height="35px" viewBox="0 0 222 35" enable-background="new 0 0 222 35" xml:space="preserve">
<g>
	<polygon fill="#F38020" points="17.887,7.515 30.243,25.53 40.522,25.53 28.165,7.515 	"/>
	<polygon fill="#F38020" points="17.873,7.507 5.55,25.474 0.358,18.083 12.724,0 	"/>
	<polygon fill="#F38020" points="24.736,34.101 0,34.067 5.479,25.592 30.147,25.617 	"/>
</g>
<g>
	<polygon fill="#BABABA" points="161.894,34.434 161.894,7.456 153.572,7.456 153.572,20.289 142.318,7.456 133.835,7.456 
		133.835,34.434 142.162,34.434 142.162,20.059 154.765,34.434 	"/>
	<path fill="#BABABA" d="M190.97,7.456h-18.765h-8.06c0,8.214,0,16.425,0,24.639v2.339h26.681h0.146h10.183l5.276-7.169l5.053,7.169
		H222l-10.176-13.681l9.985-13.299h-10.326l-4.933,6.86l-5.01-6.86h-10.523l9.943,13.337L190.97,34.24V27h-18.765v-2.408h18.765
		v-7.438h-18.765v-2.259h18.765V7.456L190.97,7.456z"/>
	<path fill="#BABABA" d="M65.837,7.456H51.562h-3.683H41.47l5.639,7.865h9.097v-0.003h9.789c1.232,0,1.849,0.579,1.849,1.39
		c0,0.887-0.616,1.389-1.849,1.389h-6.088h-3.7h-8.327v16.337h8.327v-8.477h9.631c6.784,0,10.33-3.198,10.33-9.249
		C76.167,10.654,72.619,7.456,65.837,7.456L65.837,7.456z"/>
	<polygon fill="#BABABA" points="122.811,7.456 112.48,7.456 101.572,34.434 110.324,34.434 112.054,29.965 115.063,22.1 
		117.607,15.513 120.148,22.1 117.084,22.1 114.155,29.965 123.159,29.965 124.89,34.434 133.717,34.434 	"/>
	<polygon fill="#BABABA" points="102.599,26.572 86.116,26.572 86.116,7.456 77.791,7.456 77.791,34.434 99.313,34.434 	"/>
</g>
</svg>
