<?xml version="1.0" encoding="utf-8"?>
<!-- Generator: Adobe Illustrator 16.0.0, SVG Export Plug-In . SVG Version: 6.00 Build 0)  -->
<!DOCTYPE svg PUBLIC "-//W3C//DTD SVG 1.1//EN" "http://www.w3.org/Graphics/SVG/1.1/DTD/svg11.dtd">
<svg version="1.1" id="Layer_1" xmlns="http://www.w3.org/2000/svg" xmlns:xlink="http://www.w3.org/1999/xlink" x="0px" y="0px"
	 width="50px" height="50px" viewBox="0 0 50 50" enable-background="new 0 0 50 50" xml:space="preserve">
<g>
	<path fill="#ED1F24" d="M50,44.331C50,47.449,47.449,50,44.331,50H5.669C2.551,50,0,47.449,0,44.331V5.669C0,2.551,2.551,0,5.669,0
		h38.662C47.449,0,50,2.551,50,5.669V44.331z"/>
</g>
<g enable-background="new    ">
	<path fill="#FFFFFF" d="M22.917,19.036c0,5.579-3.258,8.39-6.882,8.39c-3.706,0-6.72-2.851-6.761-7.941
		c0-5.01,2.892-8.309,6.964-8.309C20.434,11.176,22.917,14.271,22.917,19.036z M13.103,19.321c-0.041,3.055,1.059,5.294,3.054,5.294
		s2.973-2.117,2.973-5.335c0-2.932-0.814-5.294-2.973-5.294C14.121,13.986,13.103,16.349,13.103,19.321z M16.117,38.544
		l15.354-27.368h2.85L18.967,38.544H16.117z M41.162,30.032c0,5.538-3.217,8.39-6.882,8.39s-6.72-2.852-6.72-7.982
		c0-4.969,2.892-8.309,6.924-8.309C38.679,22.131,41.162,25.268,41.162,30.032z M31.348,30.317
		c-0.041,3.014,1.059,5.294,3.055,5.294c2.036,0,2.973-2.117,2.973-5.335c0-2.973-0.814-5.294-2.973-5.294
		C32.366,24.982,31.348,27.344,31.348,30.317z"/>
</g>
</svg>
