<?xml version="1.0" encoding="utf-8"?>
<!-- Generator: Adobe Illustrator 16.0.0, SVG Export Plug-In . SVG Version: 6.00 Build 0)  -->
<!DOCTYPE svg PUBLIC "-//W3C//DTD SVG 1.1//EN" "http://www.w3.org/Graphics/SVG/1.1/DTD/svg11.dtd">
<svg version="1.1" id="Layer_1" xmlns="http://www.w3.org/2000/svg" xmlns:xlink="http://www.w3.org/1999/xlink" x="0px" y="0px"
	 width="800px" height="650px" viewBox="-0.225 841.445 800 650" enable-background="new -0.225 841.445 800 650"
	 xml:space="preserve">
<path d="M267.148,1090.077c-33.223,0-60.284,27.063-60.284,60.285s27.062,60.284,60.284,60.284s60.285-27.062,60.285-60.284
	S300.371,1090.077,267.148,1090.077z M267.148,1102.135c26.708,0,48.228,21.521,48.228,48.228s-21.52,48.228-48.228,48.228
	c-26.707,0-48.228-21.521-48.228-48.228S240.442,1102.135,267.148,1102.135z M538.43,1108.163
	c-29.894,0-54.257,24.362-54.257,54.256s24.363,54.256,54.257,54.256s54.256-24.362,54.256-54.256S568.323,1108.163,538.43,1108.163
	z M538.43,1120.22c23.377,0,42.199,18.822,42.199,42.199s-18.822,42.199-42.199,42.199c-23.378,0-42.2-18.822-42.2-42.199
	S515.052,1120.22,538.43,1120.22z M399.775,1162.419c-23.234,0-42.199,18.965-42.199,42.199s18.965,42.199,42.199,42.199
	s42.199-18.965,42.199-42.199S423.009,1162.419,399.775,1162.419z M399.775,1174.476c16.719,0,30.143,13.424,30.143,30.143
	s-13.424,30.143-30.143,30.143s-30.143-13.424-30.143-30.143S383.056,1174.476,399.775,1174.476z M267.148,1234.761
	c-34.231,0-65.2,7.018-88.166,19.404c-22.965,12.387-38.432,30.84-38.432,52.938v77.805c-0.024,2.696,1.746,5.082,4.333,5.84
	c34.752,9.643,70.485,11.936,109.455,12.811c0.062,0.001,0.125,0.001,0.188,0h25.244c0.063,0.001,0.126,0.001,0.189,0
	c22.247-0.497,43.359-1.448,63.863-3.956c13.792,2.345,27.983,3.595,43.707,3.956c0.063,0.001,0.126,0.001,0.188,0h24.113
	c0.063,0.001,0.126,0.001,0.188,0c17.003-0.392,32.26-1.821,47.098-4.521c21.504,3.052,43.647,3.989,67.067,4.521
	c0.062,0.001,0.125,0.001,0.188,0h24.114c0.063,0.001,0.126,0.001,0.188,0c37.021-0.841,70.923-2.958,103.991-12.245
	c2.587-0.759,4.357-3.144,4.333-5.84v-72.342c0-21.321-14.682-39.762-36.548-52.372c-21.866-12.611-51.369-19.971-84.021-19.971
	c-43.044,0-80.646,12.788-102.296,33.723c-0.061-0.012-0.128,0.012-0.188,0c-11.206-2.248-23.345-3.58-36.171-3.58
	c-7.184,0-14.179,0.422-20.911,1.131C357.092,1248.453,315.27,1234.761,267.148,1234.761z M267.148,1246.817
	c40.958,0,76.312,11.363,96.268,27.693c-11.256,2.271-21.558,5.509-30.331,9.984c-17.545,8.953-29.766,22.928-29.766,40.505v60.473
	c0.007,2.068,1.073,3.987,2.826,5.086c-8.627,0.454-17.362,0.738-26.375,0.942h-0.188h-24.867c-0.065-0.002-0.124,0.001-0.189,0
	c-36.935-0.835-70.079-3.427-101.918-11.681v-72.718c0-16.497,11.406-31.266,32.026-42.388S234.584,1246.817,267.148,1246.817z
	 M538.43,1252.847c30.803,0,58.452,7.192,77.993,18.461c19.541,11.27,30.519,26.035,30.519,41.823v67.255
	c-30.123,7.869-61.456,10.314-96.455,11.115h-0.188h-23.736c-0.066-0.002-0.123,0.001-0.189,0
	c-11.156-0.255-21.906-0.843-32.402-1.508c1.379-1.103,2.205-2.755,2.26-4.521V1325c0-17.577-12.221-31.552-29.766-40.505
	c-4.958-2.53-10.391-4.574-16.201-6.404C469.687,1263.151,501.813,1252.847,538.43,1252.847z M399.775,1282.989
	c24.306,0,46.083,4.517,61.227,12.244c15.145,7.729,23.172,17.647,23.172,29.767v55.574c-23.391,6.37-45.488,10.293-72.342,10.927
	h-0.188h-23.737c-0.067-0.002-0.122,0.002-0.188,0c-26.853-0.634-48.951-4.557-72.342-10.927V1325
	c0-12.119,8.028-22.037,23.172-29.767C353.692,1287.506,375.469,1282.989,399.775,1282.989z M696.454,1090.615
	c-1.719,3.299-5.787,4.577-9.086,2.858L399.775,943.507L112.18,1093.474c-3.298,1.72-7.366,0.439-9.086-2.858
	c-1.72-3.298-0.44-7.366,2.858-9.086l290.417-151.438c1.089-0.567,2.26-0.802,3.405-0.751c1.144-0.052,2.317,0.184,3.406,0.751
	l290.417,151.438C696.896,1083.249,698.175,1087.317,696.454,1090.615z"/>
</svg>
