<?xml version="1.0" encoding="utf-8"?>
<!-- Generator: Adobe Illustrator 16.0.0, SVG Export Plug-In . SVG Version: 6.00 Build 0)  -->
<!DOCTYPE svg PUBLIC "-//W3C//DTD SVG 1.1//EN" "http://www.w3.org/Graphics/SVG/1.1/DTD/svg11.dtd">
<svg version="1.1" id="Layer_1" xmlns="http://www.w3.org/2000/svg" xmlns:xlink="http://www.w3.org/1999/xlink" x="0px" y="0px"
	 width="800px" height="600px" viewBox="0 0 800 600" enable-background="new 0 0 800 600" xml:space="preserve">
<path d="M400,170c-71.676,0-130,58.325-130,130c0,71.673,58.324,129.999,130,129.999c71.673,0,129.999-58.326,129.999-129.999
	C529.999,228.325,471.673,170,400,170z M400,404c-57.345,0-104.001-46.656-104.001-104c0-57.345,46.657-104.001,104.001-104.001
	c57.343,0,103.999,46.656,103.999,104.001C503.999,357.344,457.342,404,400,404z M205,300c0-7.181-5.816-13-13-13h-78
	c-7.182,0-12.999,5.816-12.999,13c0,7.182,5.816,13,12.999,13h78C199.182,313,205,307.184,205,300z M400,494.999
	c-7.183,0-13.001,5.817-13.001,13V586c0,7.181,5.817,13,13.001,13s12.999-5.817,12.999-13v-78.001
	C412.999,500.816,407.184,494.999,400,494.999z M400,105.001c7.183,0,12.999-5.817,12.999-13V14c0-7.179-5.816-13-12.999-13
	s-13.001,5.818-13.001,13v78C386.998,99.182,392.818,105.001,400,105.001z M685.998,287h-77.999c-7.184,0-13.001,5.816-13.001,13
	c0,7.182,5.816,13,13.001,13h77.999c7.181,0,13-5.816,13-13C698.998,292.819,693.181,287,685.998,287z M547.074,165.925
	c3.328,0,6.651-1.268,9.189-3.808l55.161-55.157c5.074-5.078,5.074-13.306,0-18.382c-5.077-5.078-13.32-5.078-18.382,0
	l-55.158,55.158c-5.076,5.075-5.076,13.305,0,18.381C540.426,164.657,543.746,165.925,547.074,165.925z M243.734,437.885
	l-55.158,55.158c-5.077,5.075-5.077,13.305,0,18.381c2.541,2.541,5.862,3.808,9.191,3.808c3.328,0,6.65-1.267,9.191-3.808
	l55.158-55.157c5.076-5.077,5.076-13.307,0-18.382C257.053,432.807,248.798,432.807,243.734,437.885z M206.957,88.577
	c-5.065-5.078-13.307-5.078-18.381,0c-5.077,5.076-5.077,13.304,0,18.381l55.158,55.159c2.541,2.539,5.861,3.806,9.191,3.806
	c3.328,0,6.65-1.267,9.191-3.806c5.076-5.078,5.076-13.308,0-18.382L206.957,88.577z M556.264,437.885
	c-5.063-5.078-13.319-5.078-18.38,0c-5.075,5.075-5.075,13.305,0,18.382l55.158,55.157c2.541,2.541,5.861,3.808,9.191,3.808
	c3.327,0,6.649-1.267,9.191-3.808c5.074-5.076,5.074-13.306,0-18.381L556.264,437.885z"/>
</svg>
