<?xml version="1.0" encoding="utf-8"?>
<!-- Generator: Adobe Illustrator 16.0.0, SVG Export Plug-In . SVG Version: 6.00 Build 0)  -->
<!DOCTYPE svg PUBLIC "-//W3C//DTD SVG 1.1//EN" "http://www.w3.org/Graphics/SVG/1.1/DTD/svg11.dtd">
<svg version="1.1" id="Layer_1" xmlns="http://www.w3.org/2000/svg" xmlns:xlink="http://www.w3.org/1999/xlink" x="0px" y="0px"
	 width="800px" height="600px" viewBox="0 0 800 600" enable-background="new 0 0 800 600" xml:space="preserve">
<g>
	<path d="M312.8,1c-50.814,0-91.902,39.868-93.475,89.689h-79.661c-51.756,0-93.785,41.742-93.785,93.129V291.59
		c0,0.312,0,0.618,0,0.93v213.353c0,51.397,42.026,93.128,93.785,93.128h520.67c51.756,0,93.787-41.73,93.787-93.128V292.85
		c0-0.629,0-0.927,0-1.238v-107.77c0-3.112-0.311-6.23-0.629-9.34c-0.942-9.661-3.465-18.381-6.904-26.79
		c-1.252-2.811-2.514-5.609-3.764-8.09c-7.216-13.4-17.563-24.61-30.111-32.709c-14.75-10.281-32.943-16.199-52.377-16.199h-79.363
		C579.403,40.879,538.006,1.02,487.51,1.02H312.8V1z M312.8,18.45h174.708c41.089,0,73.711,31.757,75.281,72.25H237.21
		C239.09,50.207,271.711,18.45,312.8,18.45L312.8,18.45z M139.664,108.449h86.89h433.78c42.339,0,75.891,33.639,75.891,75.382
		v102.478c-69.627,51.392-167.802,87.212-279.459,96.564c-5.654-25.862-28.859-45.48-56.47-45.48
		c-27.907,0-51.434,19.618-57.078,45.788c-111.666-9.34-210.153-45.157-279.78-96.551V183.84c0-2.491,0-4.98,0.311-7.47
		c1.261-10.291,4.394-20.249,9.095-28.661c0.939-2.179,2.513-4.052,3.762-5.921C90.099,121.54,113.315,108.449,139.664,108.449
		L139.664,108.449z M63.441,308.734c72.139,49.53,169.686,82.536,278.838,91.258c2.823,29.282,27.909,52.331,58.02,52.331
		c30.122,0,54.589-23.049,57.09-52.331c109.463-8.719,207.009-41.728,278.826-91.258v197.149c0,42.052-33.549,75.69-75.89,75.69
		H139.664c-42.337,0-76.222-33.639-76.222-75.69L63.441,308.734L63.441,308.734z M400.297,354.832
		c22.276,0,40.149,18.059,40.149,40.18c0,22.11-17.873,39.869-40.149,39.869c-22.264,0-40.456-17.749-40.456-39.869
		C359.841,372.891,378.033,354.832,400.297,354.832L400.297,354.832z"/>
</g>
</svg>
