<?xml version="1.0" encoding="utf-8"?>
<!-- Generator: Adobe Illustrator 16.0.0, SVG Export Plug-In . SVG Version: 6.00 Build 0)  -->
<!DOCTYPE svg PUBLIC "-//W3C//DTD SVG 1.1//EN" "http://www.w3.org/Graphics/SVG/1.1/DTD/svg11.dtd">
<svg version="1.1" id="Layer_1" xmlns="http://www.w3.org/2000/svg" xmlns:xlink="http://www.w3.org/1999/xlink" x="0px" y="0px"
	 width="800px" height="650px" viewBox="-0.225 841.445 800 650" enable-background="new -0.225 841.445 800 650"
	 xml:space="preserve">
<path d="M399.775,1043.047c-68.036,0-123.399,55.363-123.399,123.398s55.363,123.398,123.399,123.398
	c68.035,0,123.398-55.363,123.398-123.398S467.81,1043.047,399.775,1043.047z M399.775,1265.164
	c-54.432,0-98.719-44.287-98.719-98.719s44.288-98.719,98.719-98.719c54.431,0,98.718,44.287,98.718,98.719
	S454.205,1265.164,399.775,1265.164z M214.677,1166.445c0-6.817-5.522-12.34-12.34-12.34h-74.039
	c-6.818,0-12.339,5.522-12.339,12.34c0,6.818,5.521,12.34,12.339,12.34h74.039C209.155,1178.785,214.677,1173.264,214.677,1166.445z
	 M399.775,1351.543c-6.818,0-12.34,5.521-12.34,12.339v74.04c0,6.816,5.522,12.34,12.34,12.34s12.339-5.523,12.339-12.34v-74.04
	C412.114,1357.064,406.593,1351.543,399.775,1351.543z M399.775,981.349c6.818,0,12.339-5.523,12.339-12.34v-74.04
	c0-6.816-5.521-12.34-12.339-12.34s-12.34,5.523-12.34,12.34v74.04C387.434,975.825,392.957,981.349,399.775,981.349z
	 M671.25,1154.105h-74.039c-6.818,0-12.339,5.522-12.339,12.34c0,6.818,5.521,12.34,12.339,12.34h74.039
	c6.817,0,12.34-5.521,12.34-12.34C683.59,1159.628,678.068,1154.105,671.25,1154.105z M539.381,1039.179
	c3.159,0,6.312-1.203,8.724-3.614l52.358-52.358c4.818-4.82,4.818-12.63,0-17.448c-4.819-4.82-12.643-4.82-17.448,0l-52.358,52.357
	c-4.819,4.818-4.819,12.629,0,17.449C533.069,1037.976,536.221,1039.179,539.381,1039.179z M251.444,1297.328l-52.358,52.358
	c-4.819,4.818-4.819,12.628,0,17.448c2.412,2.412,5.565,3.614,8.724,3.614c3.159,0,6.312-1.202,8.724-3.614l52.358-52.358
	c4.818-4.818,4.818-12.63,0-17.448C264.086,1292.508,256.25,1292.508,251.444,1297.328z M216.534,965.758
	c-4.807-4.82-12.63-4.82-17.448,0c-4.819,4.818-4.819,12.628,0,17.448l52.358,52.358c2.412,2.411,5.564,3.614,8.724,3.614
	c3.159,0,6.312-1.203,8.724-3.614c4.818-4.82,4.818-12.631,0-17.449L216.534,965.758z M548.105,1297.328
	c-4.807-4.82-12.643-4.82-17.448,0c-4.819,4.818-4.819,12.63,0,17.448l52.358,52.358c2.412,2.412,5.564,3.614,8.724,3.614
	c3.159,0,6.311-1.202,8.724-3.614c4.818-4.82,4.818-12.63,0-17.448L548.105,1297.328z"/>
</svg>
