<?xml version="1.0" encoding="utf-8"?>
<!-- Generator: Adobe Illustrator 16.0.0, SVG Export Plug-In . SVG Version: 6.00 Build 0)  -->
<!DOCTYPE svg PUBLIC "-//W3C//DTD SVG 1.1//EN" "http://www.w3.org/Graphics/SVG/1.1/DTD/svg11.dtd">
<svg version="1.1" id="Layer_1" xmlns="http://www.w3.org/2000/svg" xmlns:xlink="http://www.w3.org/1999/xlink" x="0px" y="0px"
	 width="800px" height="600px" viewBox="0 0 800 600" enable-background="new 0 0 800 600" xml:space="preserve">
<path d="M232.759,203.697c-41.896,0-76.019,34.126-76.019,76.019c0,41.893,34.126,76.02,76.019,76.02
	c41.891,0,76.018-34.127,76.018-76.02C308.777,237.822,274.651,203.697,232.759,203.697z M232.759,218.903
	c33.678,0,60.815,27.138,60.815,60.816c0,33.679-27.137,60.816-60.815,60.816s-60.817-27.139-60.817-60.816
	C171.942,246.042,199.082,218.903,232.759,218.903z M574.846,226.504c-37.699,0-68.419,30.72-68.419,68.417
	c0,37.697,30.72,68.418,68.419,68.418c37.696,0,68.417-30.722,68.417-68.418C643.263,257.224,612.539,226.504,574.846,226.504z
	 M574.846,241.707c29.478,0,53.213,23.734,53.213,53.212s-23.735,53.214-53.213,53.214c-29.481,0-53.215-23.735-53.215-53.214
	S545.365,241.707,574.846,241.707z M400.002,294.92c-29.299,0-53.214,23.917-53.214,53.214c0,29.296,23.915,53.212,53.214,53.212
	c29.297,0,53.212-23.916,53.212-53.212C453.213,318.837,429.299,294.92,400.002,294.92z M400.002,310.123
	c21.082,0,38.01,16.93,38.01,38.013s-16.929,38.01-38.01,38.01c-21.084,0-38.011-16.927-38.011-38.01
	S378.918,310.123,400.002,310.123z M232.759,386.144c-43.166,0-82.217,8.85-111.179,24.469
	c-28.958,15.619-48.463,38.888-48.463,66.754v98.112c-0.03,3.401,2.203,6.41,5.463,7.365c43.823,12.16,88.883,15.051,138.024,16.154
	c0.079,0.002,0.157,0.002,0.237,0h31.833c0.079,0.002,0.159,0.002,0.238,0c28.052-0.626,54.675-1.825,80.531-4.986
	c17.391,2.957,35.286,4.532,55.114,4.986c0.079,0.002,0.159,0.002,0.236,0H415.2c0.079,0.002,0.159,0.002,0.237,0
	c21.439-0.494,40.68-2.295,59.391-5.701c27.117,3.848,55.039,5.029,84.571,5.701c0.079,0.002,0.157,0.002,0.237,0h30.408
	c0.078,0.002,0.156,0.002,0.235,0c46.685-1.062,89.435-3.728,131.133-15.439c3.263-0.959,5.493-3.967,5.464-7.364v-91.227
	c0-26.885-18.515-50.14-46.088-66.04c-27.572-15.901-64.775-25.183-105.95-25.183c-54.278,0-101.693,16.125-128.995,42.525
	c-0.077-0.017-0.162,0.015-0.237,0c-14.131-2.835-29.439-4.516-45.611-4.516c-9.059,0-17.879,0.533-26.368,1.427
	C346.177,403.409,293.44,386.144,232.759,386.144z M232.759,401.349c51.646,0,96.23,14.326,121.395,34.919
	c-14.194,2.863-27.186,6.947-38.248,12.589c-22.125,11.29-37.536,28.913-37.536,51.078v76.256c0.009,2.608,1.353,5.028,3.563,6.415
	c-10.877,0.571-21.891,0.93-33.258,1.186h-0.237h-31.358c-0.081-0.003-0.156,0.001-0.237,0c-46.576-1.053-88.37-4.32-128.519-14.729
	v-91.698c0-20.803,14.383-39.429,40.384-53.453C154.709,409.888,191.695,401.349,232.759,401.349z M574.846,408.949
	c38.843,0,73.707,9.069,98.349,23.282c24.642,14.21,38.485,32.826,38.485,52.735v84.81c-37.984,9.923-77.496,13.006-121.63,14.016
	h-0.237h-29.934c-0.082-0.003-0.152,0.001-0.235,0c-14.067-0.32-27.623-1.063-40.858-1.901c1.738-1.391,2.78-3.475,2.85-5.7v-76.255
	c0-22.165-15.412-39.788-37.535-51.078c-6.252-3.188-13.104-5.769-20.43-8.075C488.158,421.944,528.67,408.949,574.846,408.949z
	 M400.002,446.959c30.65,0,58.112,5.696,77.207,15.441c19.097,9.744,29.221,22.251,29.221,37.535v70.079
	c-29.498,8.032-57.361,12.98-91.225,13.778h-0.239h-29.931c-0.083-0.002-0.153,0.003-0.237,0
	c-33.862-0.798-61.729-5.746-91.224-13.778v-70.079c0-15.282,10.124-27.789,29.22-37.535
	C341.89,452.655,369.351,446.959,400.002,446.959z M774.115,204.375c-2.169,4.16-7.299,5.772-11.458,3.603L400.002,18.871
	L37.343,207.979c-4.159,2.17-9.289,0.553-11.458-3.603c-2.169-4.158-0.554-9.288,3.604-11.457L395.705,1.955
	c1.373-0.712,2.851-1.011,4.292-0.946c1.445-0.066,2.922,0.233,4.296,0.946L770.511,192.92
	C774.67,195.087,776.284,200.217,774.115,204.375z"/>
</svg>
