<?xml version="1.0" encoding="utf-8"?>
<!-- Generator: Adobe Illustrator 16.0.0, SVG Export Plug-In . SVG Version: 6.00 Build 0)  -->
<!DOCTYPE svg PUBLIC "-//W3C//DTD SVG 1.1//EN" "http://www.w3.org/Graphics/SVG/1.1/DTD/svg11.dtd">
<svg version="1.1" id="Layer_1" xmlns="http://www.w3.org/2000/svg" xmlns:xlink="http://www.w3.org/1999/xlink" x="0px" y="0px"
	 width="800px" height="650px" viewBox="-0.225 841.445 800 650" enable-background="new -0.225 841.445 800 650"
	 xml:space="preserve">
<g>
	<path d="M330.371,928.463c-40.445,0-73.148,31.732-74.4,71.386h-63.405c-41.194,0-74.645,33.222-74.645,74.124v85.778
		c0,0.248,0,0.492,0,0.74v169.813c0,40.909,33.45,74.123,74.645,74.123h414.417c41.193,0,74.646-33.214,74.646-74.123v-169.55
		c0-0.501,0-0.738,0-0.986v-85.778c0-2.475-0.246-4.958-0.501-7.433c-0.749-7.69-2.757-14.63-5.496-21.324
		c-0.995-2.237-2-4.464-2.994-6.439c-5.743-10.666-13.979-19.588-23.966-26.034c-11.741-8.183-26.221-12.893-41.688-12.893h-63.167
		c-1.251-39.664-34.2-71.389-74.39-71.389H330.371V928.463z M330.371,942.352h139.055c32.702,0,58.667,25.276,59.917,57.505H270.206
		C271.702,967.628,297.667,942.352,330.371,942.352L330.371,942.352z M192.566,1013.983h69.158h345.259
		c33.698,0,60.403,26.775,60.403,60v81.565c-55.417,40.904-133.558,69.415-222.429,76.857c-4.5-20.584-22.969-36.199-44.945-36.199
		c-22.212,0-40.938,15.615-45.429,36.444c-88.879-7.433-167.267-35.942-222.685-76.847v-81.814c0-1.982,0-3.964,0.247-5.945
		c1.004-8.191,3.497-16.117,7.24-22.812c0.748-1.734,2-3.224,2.994-4.712C153.116,1024.404,171.595,1013.983,192.566,1013.983
		L192.566,1013.983z M131.898,1173.396c57.417,39.423,135.057,65.694,221.935,72.635c2.247,23.307,22.213,41.652,46.179,41.652
		c23.975,0,43.449-18.346,45.44-41.652c87.124-6.94,164.763-33.212,221.925-72.635v156.916c0,33.47-26.704,60.244-60.402,60.244
		H192.566c-33.698,0-60.667-26.774-60.667-60.244V1173.396L131.898,1173.396z M400.012,1210.088c17.73,0,31.955,14.372,31.955,31.98
		c0,17.598-14.225,31.732-31.955,31.732c-17.72,0-32.2-14.126-32.2-31.732C367.812,1224.46,382.292,1210.088,400.012,1210.088
		L400.012,1210.088z"/>
</g>
</svg>
