<?xml version="1.0" encoding="utf-8"?>
<!-- Generator: Adobe Illustrator 16.0.0, SVG Export Plug-In . SVG Version: 6.00 Build 0)  -->
<!DOCTYPE svg PUBLIC "-//W3C//DTD SVG 1.1//EN" "http://www.w3.org/Graphics/SVG/1.1/DTD/svg11.dtd">
<svg version="1.1" id="Layer_1" xmlns="http://www.w3.org/2000/svg" xmlns:xlink="http://www.w3.org/1999/xlink" x="0px" y="0px"
	 width="75px" height="65px" viewBox="0.445 595.14 75 65" enable-background="new 0.445 595.14 75 65" xml:space="preserve">
<path d="M68.583,611.853h-9.851v-9.857c0-3.78-3.079-6.855-6.863-6.855H24.017c-3.782,0-6.859,3.075-6.859,6.855v9.857H7.305
	c-3.783,0-6.86,3.076-6.86,6.856v22.285c0,3.342,2.404,6.132,5.573,6.736v9.979c0,0.711,0.576,1.287,1.287,1.287h5.57
	c0.71,0,1.287-0.576,1.287-1.287v-9.856h47.565v9.856c0,0.711,0.576,1.287,1.287,1.287h5.569c0.71,0,1.287-0.576,1.287-1.287v-9.979
	c3.17-0.604,5.575-3.395,5.575-6.736V618.71C75.445,614.929,72.366,611.853,68.583,611.853z M19.732,601.996
	c0-2.36,1.922-4.281,4.285-4.281h27.852c2.365,0,4.289,1.921,4.289,4.281v11.145v15.427H19.732V613.14V601.996z M11.588,656.424
	H8.592v-8.569h2.997V656.424z M67.296,656.424h-2.995v-8.569h2.995V656.424z M72.871,640.995c0,2.362-1.923,4.285-4.288,4.285H7.305
	c-2.364,0-4.287-1.923-4.287-4.285V618.71c0-2.361,1.923-4.283,4.287-4.283h9.854v14.141H15.66c-0.71,0-1.287,0.576-1.287,1.286
	c0,0.711,0.576,1.287,1.287,1.287h2.785h39h2.781c0.71,0,1.287-0.576,1.287-1.287c0-0.71-0.576-1.286-1.287-1.286h-1.494v-14.141
	h9.851c2.364,0,4.288,1.922,4.288,4.283V640.995z"/>
</svg>
