<?xml version="1.0" encoding="utf-8"?>
<!-- Generator: Adobe Illustrator 16.0.0, SVG Export Plug-In . SVG Version: 6.00 Build 0)  -->
<!DOCTYPE svg PUBLIC "-//W3C//DTD SVG 1.1//EN" "http://www.w3.org/Graphics/SVG/1.1/DTD/svg11.dtd">
<svg version="1.1" id="Layer_1" xmlns="http://www.w3.org/2000/svg" xmlns:xlink="http://www.w3.org/1999/xlink" x="0px" y="0px"
	 width="75px" height="65px" viewBox="0.445 595.14 75 65" enable-background="new 0.445 595.14 75 65" xml:space="preserve">
<g>
	<path d="M58.793,648.079H23.212c-0.754,0-1.366,0.612-1.366,1.365c0,0.754,0.612,1.367,1.366,1.367h35.581
		c0.754,0,1.366-0.613,1.366-1.367C60.159,648.691,59.547,648.079,58.793,648.079z"/>
	<path d="M58.793,652.952H23.212c-0.754,0-1.366,0.614-1.366,1.367c0,0.754,0.612,1.366,1.366,1.366h35.581
		c0.754,0,1.366-0.612,1.366-1.366C60.159,653.566,59.547,652.952,58.793,652.952z"/>
	<path d="M58.793,595.14H16.096c-0.754,0-1.366,0.612-1.366,1.366v55.151c0,4.677,3.806,8.482,8.482,8.482h35.581
		c0.754,0,1.366-0.612,1.366-1.366s-0.612-1.366-1.366-1.366H23.212c-3.171,0-5.75-2.579-5.75-5.75c0-3.17,2.579-5.75,5.75-5.75
		h35.581c0.754,0,1.366-0.613,1.366-1.367v-48.034C60.159,595.753,59.547,595.14,58.793,595.14z M57.427,597.873v45.302H23.212
		c-2.129,0-4.187,0.818-5.75,2.265v-47.566H57.427z"/>
	<path d="M37.445,625.627c1.209,0,2.191,0.983,2.191,2.191c0,1.209-0.982,2.191-2.191,2.191h-2.372
		c-0.753,0-1.366,0.613-1.366,1.366c0,0.754,0.613,1.366,1.366,1.366h2.372c2.715,0,4.924-2.209,4.924-4.924
		c0-1.351-0.551-2.63-1.523-3.559c0.973-0.928,1.523-2.206,1.523-3.558c0-2.716-2.209-4.925-4.924-4.925
		c-1.209,0-2.191-0.983-2.191-2.19c0-1.21,0.982-2.193,2.191-2.193h2.372c0.753,0,1.366-0.612,1.366-1.366
		c0-0.753-0.613-1.366-1.366-1.366h-2.372c-2.715,0-4.924,2.209-4.924,4.926c0,1.351,0.551,2.629,1.523,3.558
		c-0.973,0.928-1.523,2.206-1.523,3.558C32.521,623.418,34.73,625.627,37.445,625.627z M35.253,620.702
		c0-1.209,0.982-2.191,2.191-2.191s2.191,0.982,2.191,2.191c0,1.208-0.982,2.191-2.191,2.191S35.253,621.91,35.253,620.702z"/>
</g>
</svg>
