<?xml version="1.0" encoding="utf-8"?>
<!-- Generator: Adobe Illustrator 16.0.0, SVG Export Plug-In . SVG Version: 6.00 Build 0)  -->
<!DOCTYPE svg PUBLIC "-//W3C//DTD SVG 1.1//EN" "http://www.w3.org/Graphics/SVG/1.1/DTD/svg11.dtd">
<svg version="1.1" id="Layer_1" xmlns="http://www.w3.org/2000/svg" xmlns:xlink="http://www.w3.org/1999/xlink" x="0px" y="0px"
	 width="75px" height="65px" viewBox="0.445 595.14 75 65" enable-background="new 0.445 595.14 75 65" xml:space="preserve">
<g transform="translate(0,-952.36218)">
	<path d="M44.611,1547.503c-7.343,0-13.333,5.989-13.333,13.334c0,3.441,1.338,6.538,3.49,8.906
		c-1.327,0.624-2.585,1.361-3.75,2.213c-2.247-1.724-5.033-2.786-8.073-2.786c-7.344,0-13.333,5.988-13.333,13.334
		c0,1.771,0.353,3.463,0.989,4.999H2.111c-0.923,0-1.667,0.742-1.667,1.667c0,0.923,0.744,1.666,1.667,1.666h10.521
		c0.158,0.194,0.301,0.388,0.469,0.573c-7.46,3.513-12.656,10.866-12.656,19.427c0,0.873,0.794,1.667,1.667,1.667h20.833h20.833
		c0.873,0,1.667-0.794,1.667-1.667c0-8.561-5.196-15.914-12.656-19.427c0.168-0.186,0.311-0.379,0.469-0.573h38.854
		c0.923,0,1.667-0.743,1.667-1.666c0-0.925-0.743-1.667-1.667-1.667h-5.052c-0.625-7.841-5.633-14.478-12.604-17.76
		c2.151-2.368,3.49-5.465,3.49-8.906C57.944,1553.492,51.955,1547.503,44.611,1547.503z M44.611,1550.836
		c5.543,0,10,4.457,10,10.001c0,3.345-1.652,6.278-4.166,8.099c-0.485,0.361-0.748,0.991-0.651,1.588
		c0.096,0.598,0.546,1.136,1.12,1.328c6.987,2.325,12.101,8.38,12.786,15.651H35.288c0.637-1.536,0.989-3.229,0.989-4.999
		c0-3.094-1.061-5.938-2.838-8.204c1.48-1.023,3.106-1.861,4.87-2.448c0.574-0.192,1.024-0.73,1.12-1.328
		c0.097-0.597-0.166-1.227-0.651-1.588c-2.515-1.82-4.167-4.754-4.167-8.099C34.611,1555.293,39.069,1550.836,44.611,1550.836z
		 M22.944,1572.503c5.543,0,10,4.457,10,10.001c0,3.345-1.652,6.278-4.167,8.098c-0.484,0.361-0.747,0.99-0.651,1.589
		c0.096,0.598,0.546,1.136,1.12,1.328c6.984,2.324,12.044,8.386,12.734,15.651H22.944H3.908c0.689-7.266,5.75-13.327,12.734-15.651
		c0.574-0.192,1.023-0.73,1.12-1.328c0.096-0.599-0.166-1.228-0.651-1.589c-2.515-1.819-4.167-4.753-4.167-8.098
		C12.945,1576.96,17.402,1572.503,22.944,1572.503z"/>
</g>
</svg>
