<?xml version="1.0" encoding="utf-8"?>
<!-- Generator: Adobe Illustrator 16.0.0, SVG Export Plug-In . SVG Version: 6.00 Build 0)  -->
<!DOCTYPE svg PUBLIC "-//W3C//DTD SVG 1.1//EN" "http://www.w3.org/Graphics/SVG/1.1/DTD/svg11.dtd">
<svg version="1.1" id="Layer_1" xmlns="http://www.w3.org/2000/svg" xmlns:xlink="http://www.w3.org/1999/xlink" x="0px" y="0px"
	 width="75px" height="65px" viewBox="0.445 595.14 75 65" enable-background="new 0.445 595.14 75 65" xml:space="preserve">
<g transform="translate(0,-952.36218)">
	<path d="M61.192,1547.508c-0.421,0.042-0.819,0.275-1.062,0.623l-13.387,19.018c-0.799-0.256-1.617-0.43-2.446-0.415
		c-3.867,0.068-7.784,2.668-10.086,6.624c-5.823,10.004-18.915,13.756-25.689,15.557c-0.914,0.234-1.385,1.48-0.854,2.262
		c2.973,4.294,5.94,7.543,9.902,10.662c0.501,0.406,1.279,0.427,1.8,0.047l1.823-1.316l-0.992,1.547
		c-0.419,0.662-0.186,1.649,0.484,2.055c3.365,2.045,7.189,4.037,10.594,5.285c0.504,0.182,1.104,0.063,1.5-0.301l1.708-1.568
		l-0.277,0.484c-0.439,0.768,0.008,1.89,0.854,2.146c3.899,1.158,7.538,2.285,10.755,2.285c0.524,0,1.039-0.303,1.292-0.762
		l13.271-23.611c0.005-0.01,0.018-0.015,0.023-0.023c1.522-2.629,2.128-5.538,1.823-8.17c-0.251-2.162-1.182-4.162-2.747-5.539
		l9.833-21.096c0.312-0.67,0.023-1.559-0.624-1.916l-6.647-3.693C61.789,1547.547,61.487,1547.482,61.192,1547.508z
		 M61.769,1550.923l4.293,2.378l-9.071,19.456l-7.547-4.315L61.769,1550.923z M16.278,1557.848c-2.022,0-3.693,1.67-3.693,3.693
		c0,2.021,1.671,3.691,3.693,3.691s3.693-1.67,3.693-3.691C19.971,1559.518,18.3,1557.848,16.278,1557.848z M16.278,1560.802
		c0.425,0,0.739,0.313,0.739,0.739c0,0.424-0.313,0.737-0.739,0.737s-0.739-0.313-0.739-0.737
		C15.539,1561.116,15.853,1560.802,16.278,1560.802z M25.141,1562.279c-2.022,0-3.693,1.671-3.693,3.693s1.671,3.692,3.693,3.692
		s3.693-1.67,3.693-3.692S27.163,1562.279,25.141,1562.279z M25.141,1565.233c0.425,0,0.739,0.314,0.739,0.739
		s-0.313,0.738-0.739,0.738s-0.739-0.313-0.739-0.738S24.716,1565.233,25.141,1565.233z M44.344,1569.688
		c0.837-0.016,1.583,0.168,2.216,0.531c0.059,0.035,10.267,5.868,10.34,5.908c1.304,0.745,2.151,2.213,2.377,4.154
		c0.18,1.547-0.084,3.328-0.808,5.055l-20.888-11.748C39.464,1571.176,42.194,1569.726,44.344,1569.688z M19.971,1571.142
		c-2.43,0-4.432,2.001-4.432,4.432c0,2.43,2.002,4.431,4.432,4.431s4.431-2.001,4.431-4.431
		C24.402,1573.143,22.401,1571.142,19.971,1571.142z M19.971,1574.096c0.833,0,1.477,0.645,1.477,1.478s-0.644,1.478-1.477,1.478
		s-1.478-0.645-1.478-1.478S19.137,1574.096,19.971,1574.096z M35.989,1576.058l21.119,11.886l-12.094,21.488
		c-1.987-0.129-4.501-0.742-7.293-1.547l4.2-7.2c0.325-0.601,0.16-1.424-0.373-1.853c-0.532-0.43-1.371-0.416-1.889,0.029
		l-8.147,7.479c-2.538-0.999-5.333-2.427-7.986-3.971l4.339-6.809c0.37-0.576,0.266-1.41-0.234-1.878
		c-0.5-0.468-1.34-0.515-1.89-0.106l-7.155,5.193c-2.746-2.27-5.007-4.71-7.178-7.617
		C18.381,1589.235,29.74,1585.526,35.989,1576.058z"/>
</g>
</svg>
