<?xml version="1.0" encoding="utf-8"?>
<!-- Generator: Adobe Illustrator 16.0.0, SVG Export Plug-In . SVG Version: 6.00 Build 0)  -->
<!DOCTYPE svg PUBLIC "-//W3C//DTD SVG 1.1//EN" "http://www.w3.org/Graphics/SVG/1.1/DTD/svg11.dtd">
<svg version="1.1" id="Layer_1" xmlns="http://www.w3.org/2000/svg" xmlns:xlink="http://www.w3.org/1999/xlink" x="0px" y="0px"
	 width="75px" height="65px" viewBox="0.445 595.14 75 65" enable-background="new 0.445 595.14 75 65" xml:space="preserve">
<g>
	<g>
		<path d="M43.739,660.138c-0.562,0-1.093-0.305-1.367-0.813l-3.424-6.339c-1.007,0.059-2,0.059-3.002,0l-3.429,6.339
			c-0.325,0.602-1.007,0.92-1.675,0.781c-3.054-0.623-6.011-1.689-8.787-3.168c-0.605-0.32-0.927-0.998-0.794-1.67l1.398-7.066
			c-0.921-0.674-1.801-1.417-2.629-2.219l-6.722,2.584c-0.64,0.242-1.362,0.043-1.781-0.496c-1.925-2.478-3.481-5.209-4.625-8.12
			c-0.249-0.637-0.052-1.362,0.485-1.786l5.656-4.453c-0.221-0.943-0.387-1.9-0.5-2.866l-6.83-2.265
			c-0.649-0.215-1.081-0.83-1.062-1.515c0.083-3.152,0.612-6.25,1.567-9.209c0.208-0.64,0.804-1.074,1.476-1.074
			c0.01,0,0.02,0,0.032,0l7.201,0.143c0.523-1.069,1.122-2.098,1.788-3.076l-3.687-6.183c-0.35-0.588-0.274-1.336,0.187-1.841
			c2.113-2.313,4.538-4.312,7.209-5.935c0.584-0.354,1.334-0.285,1.843,0.174l5.354,4.817c0.899-0.384,1.824-0.715,2.765-0.989
			l1.077-7.115c0.104-0.677,0.637-1.205,1.314-1.305c3.12-0.446,6.212-0.446,9.34,0c0.676,0.097,1.211,0.628,1.313,1.305
			l1.076,7.115c1.019,0.298,2.015,0.661,2.982,1.084l5.396-4.762c0.515-0.456,1.262-0.518,1.845-0.156
			c2.66,1.649,5.066,3.668,7.157,6c0.455,0.51,0.524,1.259,0.169,1.842l-3.748,6.148c0.596,0.894,1.136,1.826,1.612,2.793
			l7.204-0.172c0.708-0.014,1.298,0.42,1.511,1.069c0.968,2.963,1.506,6.059,1.602,9.202c0.022,0.684-0.407,1.301-1.056,1.519
			l-6.823,2.29c-0.132,1.197-0.349,2.381-0.648,3.534l5.553,4.589c0.528,0.438,0.708,1.167,0.442,1.799
			c-1.209,2.873-2.83,5.566-4.815,8.003c-0.43,0.529-1.164,0.713-1.792,0.452l-3.963-1.63c-0.794-0.323-1.17-1.231-0.845-2.022
			c0.327-0.793,1.231-1.172,2.025-0.844l2.875,1.182c1.249-1.655,2.318-3.431,3.189-5.295l-5.426-4.486
			c-0.484-0.398-0.679-1.049-0.498-1.648c0.482-1.568,0.782-3.215,0.899-4.887c0.042-0.627,0.458-1.165,1.054-1.365l6.669-2.236
			c-0.142-2.07-0.497-4.111-1.061-6.093l-7.036,0.167c-0.628-0.021-1.201-0.35-1.456-0.921c-0.629-1.423-1.412-2.776-2.324-4.024
			c-0.371-0.506-0.397-1.187-0.071-1.722l3.662-6.009c-1.439-1.485-3.027-2.816-4.739-3.974l-5.273,4.655
			c-0.472,0.416-1.143,0.506-1.706,0.23c-1.376-0.672-2.83-1.201-4.327-1.571c-0.607-0.151-1.066-0.653-1.162-1.273l-1.051-6.952
			c-2.077-0.219-4.106-0.219-6.183,0l-1.052,6.952c-0.094,0.62-0.553,1.124-1.162,1.273c-1.427,0.353-2.818,0.851-4.137,1.479
			c-0.565,0.27-1.239,0.172-1.705-0.246l-5.23-4.708c-1.722,1.14-3.322,2.455-4.773,3.929l3.603,6.043
			c0.32,0.539,0.287,1.217-0.088,1.721c-0.979,1.314-1.813,2.751-2.481,4.271c-0.248,0.564-0.807,0.927-1.42,0.927
			c-0.01,0-0.021,0-0.031,0l-7.036-0.141c-0.555,1.978-0.902,4.021-1.036,6.097l6.678,2.214c0.595,0.198,1.012,0.733,1.058,1.359
			c0.107,1.46,0.36,2.907,0.75,4.308c0.167,0.603-0.042,1.248-0.534,1.635l-5.528,4.354c0.83,1.89,1.854,3.691,3.061,5.374
			l6.571-2.525c0.584-0.227,1.247-0.075,1.679,0.378c1.124,1.181,2.367,2.231,3.698,3.122c0.521,0.348,0.781,0.976,0.659,1.588
			l-1.367,6.906c1.866,0.902,3.815,1.605,5.814,2.097l3.35-6.196c0.297-0.549,0.894-0.859,1.52-0.805
			c1.48,0.151,2.972,0.151,4.459,0c0.619-0.055,1.223,0.256,1.519,0.805l3.348,6.197c1.996-0.49,3.94-1.192,5.804-2.092
			l-3.644-17.648c-0.095-0.465,0.027-0.949,0.332-1.311c1.833-2.266,2.778-4.951,2.778-7.811c0-6.818-5.546-12.366-12.366-12.366
			c-6.818,0-12.365,5.548-12.365,12.366s5.547,12.365,12.365,12.365c0.002,0,0.007,0,0.01,0c1.1,0,2.193-0.145,3.245-0.434
			c0.832-0.228,1.682,0.26,1.907,1.088c0.227,0.825-0.262,1.68-1.087,1.904c-1.321,0.361-2.688,0.545-4.063,0.545
			c-0.003,0-0.009,0-0.013,0c-8.528,0-15.467-6.94-15.467-15.47s6.939-15.468,15.468-15.468c8.529,0,15.469,6.938,15.469,15.468
			c0,3.308-1.07,6.547-3.027,9.195l3.739,18.106c0.139,0.676-0.183,1.359-0.792,1.686c-2.781,1.475-5.735,2.543-8.789,3.166
			C43.945,660.129,43.839,660.138,43.739,660.138z"/>
	</g>
</g>
</svg>
